<svg xmlns="http://www.w3.org/2000/svg" width="160mm" height="98.425000mm" viewBox="0 0 453.543307 279">
<title>CONSTRUCTED_DEMO — zero physical experiments</title>
<rect id="figure3-rect-1" x="0.0000" y="0.0000" width="453.5433" height="279.0000" fill="#FFFFFF" stroke="none" stroke-width="0.7"/>
<text id="figure3-text-2" x="443.5433" y="12.0000" font-family="Arial" font-size="8.5" font-weight="normal" fill="#52616F" text-anchor="end">CONSTRUCTED DEMO</text>
<text id="figure3-text-3" x="118.0500" y="29.0000" font-family="Arial" font-size="10" font-weight="bold" fill="#213547" text-anchor="middle">Broad row</text>
<polyline id="figure3-line-4" points="62.0000,35.0000 174.1000,35.0000" fill="none" stroke="#B8C5CE" stroke-width="0.8"/>
<text id="figure3-text-5" x="232.4500" y="29.0000" font-family="Arial" font-size="10" font-weight="bold" fill="#213547" text-anchor="middle">Eastern local</text>
<polyline id="figure3-line-6" points="176.4000,35.0000 288.5000,35.0000" fill="none" stroke="#B8C5CE" stroke-width="0.8"/>
<text id="figure3-text-7" x="346.8500" y="29.0000" font-family="Arial" font-size="10" font-weight="bold" fill="#213547" text-anchor="middle">Combined</text>
<polyline id="figure3-line-8" points="290.8000,35.0000 402.9000,35.0000" fill="none" stroke="#B8C5CE" stroke-width="0.8"/>
<text id="figure3-text-9" x="56.0000" y="50.0000" font-family="Arial" font-size="9.5" font-weight="normal" fill="#213547" text-anchor="end">PLANE</text>
<rect id="figure3-rect-10" x="64.6000" y="43.6000" width="6.8000" height="6.8000" fill="#213547" stroke="none" stroke-width="0.7"/>
<polyline id="figure3-line-11" points="79.3000,44.0000 85.3000,50.0000" fill="none" stroke="#AD4147" stroke-width="1.1"/>
<polyline id="figure3-line-12" points="79.3000,50.0000 85.3000,44.0000" fill="none" stroke="#AD4147" stroke-width="1.1"/>
<polyline id="figure3-line-13" points="93.6000,44.0000 99.6000,50.0000" fill="none" stroke="#AD4147" stroke-width="1.1"/>
<polyline id="figure3-line-14" points="93.6000,50.0000 99.6000,44.0000" fill="none" stroke="#AD4147" stroke-width="1.1"/>
<polyline id="figure3-line-15" points="107.9000,44.0000 113.9000,50.0000" fill="none" stroke="#AD4147" stroke-width="1.1"/>
<polyline id="figure3-line-16" points="107.9000,50.0000 113.9000,44.0000" fill="none" stroke="#AD4147" stroke-width="1.1"/>
<polyline id="figure3-line-17" points="122.2000,44.0000 128.2000,50.0000" fill="none" stroke="#AD4147" stroke-width="1.1"/>
<polyline id="figure3-line-18" points="122.2000,50.0000 128.2000,44.0000" fill="none" stroke="#AD4147" stroke-width="1.1"/>
<polyline id="figure3-line-19" points="136.5000,44.0000 142.5000,50.0000" fill="none" stroke="#AD4147" stroke-width="1.1"/>
<polyline id="figure3-line-20" points="136.5000,50.0000 142.5000,44.0000" fill="none" stroke="#AD4147" stroke-width="1.1"/>
<polyline id="figure3-line-21" points="150.8000,44.0000 156.8000,50.0000" fill="none" stroke="#AD4147" stroke-width="1.1"/>
<polyline id="figure3-line-22" points="150.8000,50.0000 156.8000,44.0000" fill="none" stroke="#AD4147" stroke-width="1.1"/>
<polyline id="figure3-line-23" points="165.1000,44.0000 171.1000,50.0000" fill="none" stroke="#AD4147" stroke-width="1.1"/>
<polyline id="figure3-line-24" points="165.1000,50.0000 171.1000,44.0000" fill="none" stroke="#AD4147" stroke-width="1.1"/>
<polyline id="figure3-line-25" points="179.4000,44.0000 185.4000,50.0000" fill="none" stroke="#AD4147" stroke-width="1.1"/>
<polyline id="figure3-line-26" points="179.4000,50.0000 185.4000,44.0000" fill="none" stroke="#AD4147" stroke-width="1.1"/>
<polyline id="figure3-line-27" points="193.7000,44.0000 199.7000,50.0000" fill="none" stroke="#AD4147" stroke-width="1.1"/>
<polyline id="figure3-line-28" points="193.7000,50.0000 199.7000,44.0000" fill="none" stroke="#AD4147" stroke-width="1.1"/>
<polyline id="figure3-line-29" points="208.0000,44.0000 214.0000,50.0000" fill="none" stroke="#AD4147" stroke-width="1.1"/>
<polyline id="figure3-line-30" points="208.0000,50.0000 214.0000,44.0000" fill="none" stroke="#AD4147" stroke-width="1.1"/>
<polyline id="figure3-line-31" points="222.3000,44.0000 228.3000,50.0000" fill="none" stroke="#AD4147" stroke-width="1.1"/>
<polyline id="figure3-line-32" points="222.3000,50.0000 228.3000,44.0000" fill="none" stroke="#AD4147" stroke-width="1.1"/>
<polyline id="figure3-line-33" points="236.6000,44.0000 242.6000,50.0000" fill="none" stroke="#AD4147" stroke-width="1.1"/>
<polyline id="figure3-line-34" points="236.6000,50.0000 242.6000,44.0000" fill="none" stroke="#AD4147" stroke-width="1.1"/>
<polyline id="figure3-line-35" points="250.9000,44.0000 256.9000,50.0000" fill="none" stroke="#AD4147" stroke-width="1.1"/>
<polyline id="figure3-line-36" points="250.9000,50.0000 256.9000,44.0000" fill="none" stroke="#AD4147" stroke-width="1.1"/>
<polyline id="figure3-line-37" points="265.2000,44.0000 271.2000,50.0000" fill="none" stroke="#AD4147" stroke-width="1.1"/>
<polyline id="figure3-line-38" points="265.2000,50.0000 271.2000,44.0000" fill="none" stroke="#AD4147" stroke-width="1.1"/>
<polyline id="figure3-line-39" points="279.5000,44.0000 285.5000,50.0000" fill="none" stroke="#AD4147" stroke-width="1.1"/>
<polyline id="figure3-line-40" points="279.5000,50.0000 285.5000,44.0000" fill="none" stroke="#AD4147" stroke-width="1.1"/>
<polyline id="figure3-line-41" points="293.8000,44.0000 299.8000,50.0000" fill="none" stroke="#AD4147" stroke-width="1.1"/>
<polyline id="figure3-line-42" points="293.8000,50.0000 299.8000,44.0000" fill="none" stroke="#AD4147" stroke-width="1.1"/>
<polyline id="figure3-line-43" points="308.1000,44.0000 314.1000,50.0000" fill="none" stroke="#AD4147" stroke-width="1.1"/>
<polyline id="figure3-line-44" points="308.1000,50.0000 314.1000,44.0000" fill="none" stroke="#AD4147" stroke-width="1.1"/>
<polyline id="figure3-line-45" points="322.4000,44.0000 328.4000,50.0000" fill="none" stroke="#AD4147" stroke-width="1.1"/>
<polyline id="figure3-line-46" points="322.4000,50.0000 328.4000,44.0000" fill="none" stroke="#AD4147" stroke-width="1.1"/>
<polyline id="figure3-line-47" points="336.7000,44.0000 342.7000,50.0000" fill="none" stroke="#AD4147" stroke-width="1.1"/>
<polyline id="figure3-line-48" points="336.7000,50.0000 342.7000,44.0000" fill="none" stroke="#AD4147" stroke-width="1.1"/>
<polyline id="figure3-line-49" points="351.0000,44.0000 357.0000,50.0000" fill="none" stroke="#AD4147" stroke-width="1.1"/>
<polyline id="figure3-line-50" points="351.0000,50.0000 357.0000,44.0000" fill="none" stroke="#AD4147" stroke-width="1.1"/>
<polyline id="figure3-line-51" points="365.3000,44.0000 371.3000,50.0000" fill="none" stroke="#AD4147" stroke-width="1.1"/>
<polyline id="figure3-line-52" points="365.3000,50.0000 371.3000,44.0000" fill="none" stroke="#AD4147" stroke-width="1.1"/>
<polyline id="figure3-line-53" points="379.6000,44.0000 385.6000,50.0000" fill="none" stroke="#AD4147" stroke-width="1.1"/>
<polyline id="figure3-line-54" points="379.6000,50.0000 385.6000,44.0000" fill="none" stroke="#AD4147" stroke-width="1.1"/>
<polyline id="figure3-line-55" points="393.9000,44.0000 399.9000,50.0000" fill="none" stroke="#AD4147" stroke-width="1.1"/>
<polyline id="figure3-line-56" points="393.9000,50.0000 399.9000,44.0000" fill="none" stroke="#AD4147" stroke-width="1.1"/>
<text id="figure3-text-57" x="56.0000" y="67.0000" font-family="Arial" font-size="9.5" font-weight="normal" fill="#213547" text-anchor="end">ALL9</text>
<rect id="figure3-rect-58" x="64.6000" y="60.6000" width="6.8000" height="6.8000" fill="#213547" stroke="none" stroke-width="0.7"/>
<rect id="figure3-rect-59" x="78.9000" y="60.6000" width="6.8000" height="6.8000" fill="#213547" stroke="none" stroke-width="0.7"/>
<rect id="figure3-rect-60" x="93.2000" y="60.6000" width="6.8000" height="6.8000" fill="#213547" stroke="none" stroke-width="0.7"/>
<rect id="figure3-rect-61" x="107.5000" y="60.6000" width="6.8000" height="6.8000" fill="#213547" stroke="none" stroke-width="0.7"/>
<rect id="figure3-rect-62" x="121.8000" y="60.6000" width="6.8000" height="6.8000" fill="#213547" stroke="none" stroke-width="0.7"/>
<rect id="figure3-rect-63" x="136.1000" y="60.6000" width="6.8000" height="6.8000" fill="#213547" stroke="none" stroke-width="0.7"/>
<rect id="figure3-rect-64" x="150.4000" y="60.6000" width="6.8000" height="6.8000" fill="#213547" stroke="none" stroke-width="0.7"/>
<rect id="figure3-rect-65" x="164.7000" y="60.6000" width="6.8000" height="6.8000" fill="#213547" stroke="none" stroke-width="0.7"/>
<rect id="figure3-rect-66" x="179.0000" y="60.6000" width="6.8000" height="6.8000" fill="#213547" stroke="none" stroke-width="0.7"/>
<rect id="figure3-rect-67" x="193.3000" y="60.6000" width="6.8000" height="6.8000" fill="#213547" stroke="none" stroke-width="0.7"/>
<rect id="figure3-rect-68" x="207.6000" y="60.6000" width="6.8000" height="6.8000" fill="#213547" stroke="none" stroke-width="0.7"/>
<rect id="figure3-rect-69" x="221.9000" y="60.6000" width="6.8000" height="6.8000" fill="#213547" stroke="none" stroke-width="0.7"/>
<rect id="figure3-rect-70" x="236.2000" y="60.6000" width="6.8000" height="6.8000" fill="#213547" stroke="none" stroke-width="0.7"/>
<rect id="figure3-rect-71" x="250.5000" y="60.6000" width="6.8000" height="6.8000" fill="#213547" stroke="none" stroke-width="0.7"/>
<rect id="figure3-rect-72" x="264.8000" y="60.6000" width="6.8000" height="6.8000" fill="#213547" stroke="none" stroke-width="0.7"/>
<rect id="figure3-rect-73" x="279.1000" y="60.6000" width="6.8000" height="6.8000" fill="#213547" stroke="none" stroke-width="0.7"/>
<rect id="figure3-rect-74" x="293.4000" y="60.6000" width="6.8000" height="6.8000" fill="#213547" stroke="none" stroke-width="0.7"/>
<rect id="figure3-rect-75" x="307.7000" y="60.6000" width="6.8000" height="6.8000" fill="#213547" stroke="none" stroke-width="0.7"/>
<rect id="figure3-rect-76" x="322.0000" y="60.6000" width="6.8000" height="6.8000" fill="#213547" stroke="none" stroke-width="0.7"/>
<rect id="figure3-rect-77" x="336.3000" y="60.6000" width="6.8000" height="6.8000" fill="#213547" stroke="none" stroke-width="0.7"/>
<rect id="figure3-rect-78" x="350.6000" y="60.6000" width="6.8000" height="6.8000" fill="#213547" stroke="none" stroke-width="0.7"/>
<rect id="figure3-rect-79" x="364.9000" y="60.6000" width="6.8000" height="6.8000" fill="#213547" stroke="none" stroke-width="0.7"/>
<rect id="figure3-rect-80" x="379.2000" y="60.6000" width="6.8000" height="6.8000" fill="#213547" stroke="none" stroke-width="0.7"/>
<rect id="figure3-rect-81" x="393.5000" y="60.6000" width="6.8000" height="6.8000" fill="#213547" stroke="none" stroke-width="0.7"/>
<text id="figure3-text-82" x="56.0000" y="84.0000" font-family="Arial" font-size="9.5" font-weight="bold" fill="#213547" text-anchor="end">ROW3</text>
<rect id="figure3-rect-83" x="64.6000" y="77.6000" width="6.8000" height="6.8000" fill="#086FA2" stroke="none" stroke-width="0.7"/>
<rect id="figure3-rect-84" x="78.9000" y="77.6000" width="6.8000" height="6.8000" fill="#086FA2" stroke="none" stroke-width="0.7"/>
<rect id="figure3-rect-85" x="93.2000" y="77.6000" width="6.8000" height="6.8000" fill="#086FA2" stroke="none" stroke-width="0.7"/>
<rect id="figure3-rect-86" x="107.5000" y="77.6000" width="6.8000" height="6.8000" fill="#086FA2" stroke="none" stroke-width="0.7"/>
<rect id="figure3-rect-87" x="121.8000" y="77.6000" width="6.8000" height="6.8000" fill="#086FA2" stroke="none" stroke-width="0.7"/>
<rect id="figure3-rect-88" x="136.1000" y="77.6000" width="6.8000" height="6.8000" fill="#086FA2" stroke="none" stroke-width="0.7"/>
<rect id="figure3-rect-89" x="150.4000" y="77.6000" width="6.8000" height="6.8000" fill="#086FA2" stroke="none" stroke-width="0.7"/>
<rect id="figure3-rect-90" x="164.7000" y="77.6000" width="6.8000" height="6.8000" fill="#086FA2" stroke="none" stroke-width="0.7"/>
<polyline id="figure3-line-91" points="179.4000,78.0000 185.4000,84.0000" fill="none" stroke="#AD4147" stroke-width="1.1"/>
<polyline id="figure3-line-92" points="179.4000,84.0000 185.4000,78.0000" fill="none" stroke="#AD4147" stroke-width="1.1"/>
<polyline id="figure3-line-93" points="193.7000,78.0000 199.7000,84.0000" fill="none" stroke="#AD4147" stroke-width="1.1"/>
<polyline id="figure3-line-94" points="193.7000,84.0000 199.7000,78.0000" fill="none" stroke="#AD4147" stroke-width="1.1"/>
<polyline id="figure3-line-95" points="208.0000,78.0000 214.0000,84.0000" fill="none" stroke="#AD4147" stroke-width="1.1"/>
<polyline id="figure3-line-96" points="208.0000,84.0000 214.0000,78.0000" fill="none" stroke="#AD4147" stroke-width="1.1"/>
<polyline id="figure3-line-97" points="222.3000,78.0000 228.3000,84.0000" fill="none" stroke="#AD4147" stroke-width="1.1"/>
<polyline id="figure3-line-98" points="222.3000,84.0000 228.3000,78.0000" fill="none" stroke="#AD4147" stroke-width="1.1"/>
<polyline id="figure3-line-99" points="236.6000,78.0000 242.6000,84.0000" fill="none" stroke="#AD4147" stroke-width="1.1"/>
<polyline id="figure3-line-100" points="236.6000,84.0000 242.6000,78.0000" fill="none" stroke="#AD4147" stroke-width="1.1"/>
<polyline id="figure3-line-101" points="250.9000,78.0000 256.9000,84.0000" fill="none" stroke="#AD4147" stroke-width="1.1"/>
<polyline id="figure3-line-102" points="250.9000,84.0000 256.9000,78.0000" fill="none" stroke="#AD4147" stroke-width="1.1"/>
<polyline id="figure3-line-103" points="265.2000,78.0000 271.2000,84.0000" fill="none" stroke="#AD4147" stroke-width="1.1"/>
<polyline id="figure3-line-104" points="265.2000,84.0000 271.2000,78.0000" fill="none" stroke="#AD4147" stroke-width="1.1"/>
<polyline id="figure3-line-105" points="279.5000,78.0000 285.5000,84.0000" fill="none" stroke="#AD4147" stroke-width="1.1"/>
<polyline id="figure3-line-106" points="279.5000,84.0000 285.5000,78.0000" fill="none" stroke="#AD4147" stroke-width="1.1"/>
<rect id="figure3-rect-107" x="293.4000" y="77.6000" width="6.8000" height="6.8000" fill="#086FA2" stroke="none" stroke-width="0.7"/>
<rect id="figure3-rect-108" x="307.7000" y="77.6000" width="6.8000" height="6.8000" fill="#086FA2" stroke="none" stroke-width="0.7"/>
<rect id="figure3-rect-109" x="322.0000" y="77.6000" width="6.8000" height="6.8000" fill="#086FA2" stroke="none" stroke-width="0.7"/>
<rect id="figure3-rect-110" x="336.3000" y="77.6000" width="6.8000" height="6.8000" fill="#086FA2" stroke="none" stroke-width="0.7"/>
<polyline id="figure3-line-111" points="351.0000,78.0000 357.0000,84.0000" fill="none" stroke="#AD4147" stroke-width="1.1"/>
<polyline id="figure3-line-112" points="351.0000,84.0000 357.0000,78.0000" fill="none" stroke="#AD4147" stroke-width="1.1"/>
<polyline id="figure3-line-113" points="365.3000,78.0000 371.3000,84.0000" fill="none" stroke="#AD4147" stroke-width="1.1"/>
<polyline id="figure3-line-114" points="365.3000,84.0000 371.3000,78.0000" fill="none" stroke="#AD4147" stroke-width="1.1"/>
<polyline id="figure3-line-115" points="379.6000,78.0000 385.6000,84.0000" fill="none" stroke="#AD4147" stroke-width="1.1"/>
<polyline id="figure3-line-116" points="379.6000,84.0000 385.6000,78.0000" fill="none" stroke="#AD4147" stroke-width="1.1"/>
<polyline id="figure3-line-117" points="393.9000,78.0000 399.9000,84.0000" fill="none" stroke="#AD4147" stroke-width="1.1"/>
<polyline id="figure3-line-118" points="393.9000,84.0000 399.9000,78.0000" fill="none" stroke="#AD4147" stroke-width="1.1"/>
<text id="figure3-text-119" x="56.0000" y="101.0000" font-family="Arial" font-size="9.5" font-weight="normal" fill="#213547" text-anchor="end">SHIFT3</text>
<rect id="figure3-rect-120" x="64.6000" y="94.6000" width="6.8000" height="6.8000" fill="#213547" stroke="none" stroke-width="0.7"/>
<rect id="figure3-rect-121" x="78.9000" y="94.6000" width="6.8000" height="6.8000" fill="#213547" stroke="none" stroke-width="0.7"/>
<rect id="figure3-rect-122" x="93.2000" y="94.6000" width="6.8000" height="6.8000" fill="#213547" stroke="none" stroke-width="0.7"/>
<rect id="figure3-rect-123" x="107.5000" y="94.6000" width="6.8000" height="6.8000" fill="#213547" stroke="none" stroke-width="0.7"/>
<rect id="figure3-rect-124" x="121.8000" y="94.6000" width="6.8000" height="6.8000" fill="#213547" stroke="none" stroke-width="0.7"/>
<rect id="figure3-rect-125" x="136.1000" y="94.6000" width="6.8000" height="6.8000" fill="#213547" stroke="none" stroke-width="0.7"/>
<rect id="figure3-rect-126" x="150.4000" y="94.6000" width="6.8000" height="6.8000" fill="#213547" stroke="none" stroke-width="0.7"/>
<rect id="figure3-rect-127" x="164.7000" y="94.6000" width="6.8000" height="6.8000" fill="#213547" stroke="none" stroke-width="0.7"/>
<polyline id="figure3-line-128" points="179.4000,95.0000 185.4000,101.0000" fill="none" stroke="#AD4147" stroke-width="1.1"/>
<polyline id="figure3-line-129" points="179.4000,101.0000 185.4000,95.0000" fill="none" stroke="#AD4147" stroke-width="1.1"/>
<polyline id="figure3-line-130" points="193.7000,95.0000 199.7000,101.0000" fill="none" stroke="#AD4147" stroke-width="1.1"/>
<polyline id="figure3-line-131" points="193.7000,101.0000 199.7000,95.0000" fill="none" stroke="#AD4147" stroke-width="1.1"/>
<polyline id="figure3-line-132" points="208.0000,95.0000 214.0000,101.0000" fill="none" stroke="#AD4147" stroke-width="1.1"/>
<polyline id="figure3-line-133" points="208.0000,101.0000 214.0000,95.0000" fill="none" stroke="#AD4147" stroke-width="1.1"/>
<polyline id="figure3-line-134" points="222.3000,95.0000 228.3000,101.0000" fill="none" stroke="#AD4147" stroke-width="1.1"/>
<polyline id="figure3-line-135" points="222.3000,101.0000 228.3000,95.0000" fill="none" stroke="#AD4147" stroke-width="1.1"/>
<polyline id="figure3-line-136" points="236.6000,95.0000 242.6000,101.0000" fill="none" stroke="#AD4147" stroke-width="1.1"/>
<polyline id="figure3-line-137" points="236.6000,101.0000 242.6000,95.0000" fill="none" stroke="#AD4147" stroke-width="1.1"/>
<polyline id="figure3-line-138" points="250.9000,95.0000 256.9000,101.0000" fill="none" stroke="#AD4147" stroke-width="1.1"/>
<polyline id="figure3-line-139" points="250.9000,101.0000 256.9000,95.0000" fill="none" stroke="#AD4147" stroke-width="1.1"/>
<polyline id="figure3-line-140" points="265.2000,95.0000 271.2000,101.0000" fill="none" stroke="#AD4147" stroke-width="1.1"/>
<polyline id="figure3-line-141" points="265.2000,101.0000 271.2000,95.0000" fill="none" stroke="#AD4147" stroke-width="1.1"/>
<polyline id="figure3-line-142" points="279.5000,95.0000 285.5000,101.0000" fill="none" stroke="#AD4147" stroke-width="1.1"/>
<polyline id="figure3-line-143" points="279.5000,101.0000 285.5000,95.0000" fill="none" stroke="#AD4147" stroke-width="1.1"/>
<polyline id="figure3-line-144" points="293.8000,95.0000 299.8000,101.0000" fill="none" stroke="#AD4147" stroke-width="1.1"/>
<polyline id="figure3-line-145" points="293.8000,101.0000 299.8000,95.0000" fill="none" stroke="#AD4147" stroke-width="1.1"/>
<polyline id="figure3-line-146" points="308.1000,95.0000 314.1000,101.0000" fill="none" stroke="#AD4147" stroke-width="1.1"/>
<polyline id="figure3-line-147" points="308.1000,101.0000 314.1000,95.0000" fill="none" stroke="#AD4147" stroke-width="1.1"/>
<polyline id="figure3-line-148" points="322.4000,95.0000 328.4000,101.0000" fill="none" stroke="#AD4147" stroke-width="1.1"/>
<polyline id="figure3-line-149" points="322.4000,101.0000 328.4000,95.0000" fill="none" stroke="#AD4147" stroke-width="1.1"/>
<polyline id="figure3-line-150" points="336.7000,95.0000 342.7000,101.0000" fill="none" stroke="#AD4147" stroke-width="1.1"/>
<polyline id="figure3-line-151" points="336.7000,101.0000 342.7000,95.0000" fill="none" stroke="#AD4147" stroke-width="1.1"/>
<polyline id="figure3-line-152" points="351.0000,95.0000 357.0000,101.0000" fill="none" stroke="#AD4147" stroke-width="1.1"/>
<polyline id="figure3-line-153" points="351.0000,101.0000 357.0000,95.0000" fill="none" stroke="#AD4147" stroke-width="1.1"/>
<polyline id="figure3-line-154" points="365.3000,95.0000 371.3000,101.0000" fill="none" stroke="#AD4147" stroke-width="1.1"/>
<polyline id="figure3-line-155" points="365.3000,101.0000 371.3000,95.0000" fill="none" stroke="#AD4147" stroke-width="1.1"/>
<polyline id="figure3-line-156" points="379.6000,95.0000 385.6000,101.0000" fill="none" stroke="#AD4147" stroke-width="1.1"/>
<polyline id="figure3-line-157" points="379.6000,101.0000 385.6000,95.0000" fill="none" stroke="#AD4147" stroke-width="1.1"/>
<polyline id="figure3-line-158" points="393.9000,95.0000 399.9000,101.0000" fill="none" stroke="#AD4147" stroke-width="1.1"/>
<polyline id="figure3-line-159" points="393.9000,101.0000 399.9000,95.0000" fill="none" stroke="#AD4147" stroke-width="1.1"/>
<rect id="figure3-rect-160" x="68.0000" y="113.0000" width="6.0000" height="6.0000" fill="#213547" stroke="none" stroke-width="0.7"/>
<text id="figure3-text-161" x="80.0000" y="120.0000" font-family="Arial" font-size="9" font-weight="normal" fill="#213547" text-anchor="start">All 9 centers accepted</text>
<polyline id="figure3-line-162" points="234.0000,113.0000 240.0000,119.0000" fill="none" stroke="#AD4147" stroke-width="1.2"/>
<polyline id="figure3-line-163" points="234.0000,119.0000 240.0000,113.0000" fill="none" stroke="#AD4147" stroke-width="1.2"/>
<text id="figure3-text-164" x="247.0000" y="120.0000" font-family="Arial" font-size="9" font-weight="normal" fill="#213547" text-anchor="start">Event failed</text>
<text id="figure3-text-165" x="10.0000" y="140.0000" font-family="Arial" font-size="9.5" font-weight="bold" fill="#213547" text-anchor="start">Cycle (s)</text>
<polyline id="figure3-line-166" points="63.0000,149.0000 63.0000,247.0000 401.9000,247.0000" fill="none" stroke="#52616F" stroke-width="0.7"/>
<polyline id="figure3-line-167" points="63.0000,247.0000 401.9000,247.0000" fill="none" stroke="#B8C5CE" stroke-width="0.5"/>
<text id="figure3-text-168" x="58.0000" y="250.0000" font-family="Arial" font-size="8.5" font-weight="normal" fill="#213547" text-anchor="end">10</text>
<polyline id="figure3-line-169" points="63.0000,222.5000 401.9000,222.5000" fill="none" stroke="#B8C5CE" stroke-width="0.5"/>
<text id="figure3-text-170" x="58.0000" y="225.5000" font-family="Arial" font-size="8.5" font-weight="normal" fill="#213547" text-anchor="end">15</text>
<polyline id="figure3-line-171" points="63.0000,198.0000 401.9000,198.0000" fill="none" stroke="#B8C5CE" stroke-width="0.5"/>
<text id="figure3-text-172" x="58.0000" y="201.0000" font-family="Arial" font-size="8.5" font-weight="normal" fill="#213547" text-anchor="end">20</text>
<polyline id="figure3-line-173" points="63.0000,173.5000 401.9000,173.5000" fill="none" stroke="#B8C5CE" stroke-width="0.5"/>
<text id="figure3-text-174" x="58.0000" y="176.5000" font-family="Arial" font-size="8.5" font-weight="normal" fill="#213547" text-anchor="end">25</text>
<polyline id="figure3-line-175" points="63.0000,149.0000 401.9000,149.0000" fill="none" stroke="#B8C5CE" stroke-width="0.5"/>
<text id="figure3-text-176" x="58.0000" y="152.0000" font-family="Arial" font-size="8.5" font-weight="normal" fill="#213547" text-anchor="end">30</text>
<polyline id="figure3-line-177" points="65.0000,229.4090 399.9000,229.4090" fill="none" stroke="#768797" stroke-width="1" stroke-dasharray="4 2"/>
<text id="figure3-text-178" x="405.9000" y="227.4090" font-family="Arial" font-size="9" font-weight="normal" fill="#768797" text-anchor="start">PLANE</text>
<text id="figure3-text-179" x="405.9000" y="238.4090" font-family="Arial" font-size="8.5" font-weight="normal" fill="#768797" text-anchor="start">13.59 s</text>
<polyline id="figure3-line-180" points="65.0000,201.5985 399.9000,201.5985" fill="none" stroke="#745A99" stroke-width="1" stroke-dasharray="4 2"/>
<text id="figure3-text-181" x="405.9000" y="199.5985" font-family="Arial" font-size="9" font-weight="normal" fill="#745A99" text-anchor="start">SHIFT3</text>
<text id="figure3-text-182" x="405.9000" y="210.5985" font-family="Arial" font-size="8.5" font-weight="normal" fill="#745A99" text-anchor="start">19.27 s</text>
<polyline id="figure3-line-183" points="65.0000,171.8830 399.9000,171.8830" fill="none" stroke="#213547" stroke-width="1" stroke-dasharray="4 2"/>
<text id="figure3-text-184" x="405.9000" y="169.8830" font-family="Arial" font-size="9" font-weight="normal" fill="#213547" text-anchor="start">ALL9</text>
<text id="figure3-text-185" x="405.9000" y="180.8830" font-family="Arial" font-size="8.5" font-weight="normal" fill="#213547" text-anchor="start">25.33 s</text>
<circle id="figure3-circle-186" cx="68.0000" cy="201.5985" r="2.5" fill="#086FA2" stroke="none" stroke-width="0.8"/>
<circle id="figure3-circle-187" cx="82.3000" cy="187.3885" r="2.5" fill="#086FA2" stroke="none" stroke-width="0.8"/>
<circle id="figure3-circle-188" cx="96.6000" cy="187.3885" r="2.5" fill="#086FA2" stroke="none" stroke-width="0.8"/>
<circle id="figure3-circle-189" cx="110.9000" cy="186.9721" r="2.5" fill="#086FA2" stroke="none" stroke-width="0.8"/>
<circle id="figure3-circle-190" cx="125.2000" cy="172.7621" r="2.5" fill="#086FA2" stroke="none" stroke-width="0.8"/>
<circle id="figure3-circle-191" cx="139.5000" cy="172.7621" r="2.5" fill="#086FA2" stroke="none" stroke-width="0.8"/>
<circle id="figure3-circle-192" cx="153.8000" cy="158.5521" r="2.5" fill="#086FA2" stroke="none" stroke-width="0.8"/>
<circle id="figure3-circle-193" cx="168.1000" cy="158.5521" r="2.5" fill="#086FA2" stroke="none" stroke-width="0.8"/>
<polyline id="figure3-line-194" points="179.6000,198.7985 185.2000,204.3985" fill="none" stroke="#086FA2" stroke-width="1.4"/>
<polyline id="figure3-line-195" points="179.6000,204.3985 185.2000,198.7985" fill="none" stroke="#086FA2" stroke-width="1.4"/>
<polyline id="figure3-line-196" points="193.9000,198.7985 199.5000,204.3985" fill="none" stroke="#086FA2" stroke-width="1.4"/>
<polyline id="figure3-line-197" points="193.9000,204.3985 199.5000,198.7985" fill="none" stroke="#086FA2" stroke-width="1.4"/>
<polyline id="figure3-line-198" points="208.2000,198.7985 213.8000,204.3985" fill="none" stroke="#086FA2" stroke-width="1.4"/>
<polyline id="figure3-line-199" points="208.2000,204.3985 213.8000,198.7985" fill="none" stroke="#086FA2" stroke-width="1.4"/>
<polyline id="figure3-line-200" points="222.5000,198.7985 228.1000,204.3985" fill="none" stroke="#086FA2" stroke-width="1.4"/>
<polyline id="figure3-line-201" points="222.5000,204.3985 228.1000,198.7985" fill="none" stroke="#086FA2" stroke-width="1.4"/>
<polyline id="figure3-line-202" points="236.8000,198.7985 242.4000,204.3985" fill="none" stroke="#086FA2" stroke-width="1.4"/>
<polyline id="figure3-line-203" points="236.8000,204.3985 242.4000,198.7985" fill="none" stroke="#086FA2" stroke-width="1.4"/>
<polyline id="figure3-line-204" points="251.1000,198.7985 256.7000,204.3985" fill="none" stroke="#086FA2" stroke-width="1.4"/>
<polyline id="figure3-line-205" points="251.1000,204.3985 256.7000,198.7985" fill="none" stroke="#086FA2" stroke-width="1.4"/>
<polyline id="figure3-line-206" points="265.4000,198.7985 271.0000,204.3985" fill="none" stroke="#086FA2" stroke-width="1.4"/>
<polyline id="figure3-line-207" points="265.4000,204.3985 271.0000,198.7985" fill="none" stroke="#086FA2" stroke-width="1.4"/>
<polyline id="figure3-line-208" points="279.7000,198.7985 285.3000,204.3985" fill="none" stroke="#086FA2" stroke-width="1.4"/>
<polyline id="figure3-line-209" points="279.7000,204.3985 285.3000,198.7985" fill="none" stroke="#086FA2" stroke-width="1.4"/>
<circle id="figure3-circle-210" cx="296.8000" cy="187.3885" r="2.5" fill="#086FA2" stroke="none" stroke-width="0.8"/>
<circle id="figure3-circle-211" cx="311.1000" cy="187.3885" r="2.5" fill="#086FA2" stroke="none" stroke-width="0.8"/>
<circle id="figure3-circle-212" cx="325.4000" cy="186.9721" r="2.5" fill="#086FA2" stroke="none" stroke-width="0.8"/>
<circle id="figure3-circle-213" cx="339.7000" cy="187.3885" r="2.5" fill="#086FA2" stroke="none" stroke-width="0.8"/>
<polyline id="figure3-line-214" points="351.2000,184.5885 356.8000,190.1885" fill="none" stroke="#086FA2" stroke-width="1.4"/>
<polyline id="figure3-line-215" points="351.2000,190.1885 356.8000,184.5885" fill="none" stroke="#086FA2" stroke-width="1.4"/>
<polyline id="figure3-line-216" points="365.5000,184.1721 371.1000,189.7721" fill="none" stroke="#086FA2" stroke-width="1.4"/>
<polyline id="figure3-line-217" points="365.5000,189.7721 371.1000,184.1721" fill="none" stroke="#086FA2" stroke-width="1.4"/>
<polyline id="figure3-line-218" points="379.8000,184.5885 385.4000,190.1885" fill="none" stroke="#086FA2" stroke-width="1.4"/>
<polyline id="figure3-line-219" points="379.8000,190.1885 385.4000,184.5885" fill="none" stroke="#086FA2" stroke-width="1.4"/>
<polyline id="figure3-line-220" points="394.1000,184.5885 399.7000,190.1885" fill="none" stroke="#086FA2" stroke-width="1.4"/>
<polyline id="figure3-line-221" points="394.1000,190.1885 399.7000,184.5885" fill="none" stroke="#086FA2" stroke-width="1.4"/>
<circle id="figure3-circle-222" cx="158.0000" cy="138.0000" r="2.5" fill="#086FA2" stroke="none" stroke-width="0.8"/>
<text id="figure3-text-223" x="174.0000" y="141.0000" font-family="Arial" font-size="9.5" font-weight="bold" fill="#086FA2" text-anchor="start">ROW3</text>
<text id="figure3-text-224" x="278.0000" y="141.0000" font-family="Arial" font-size="9" font-weight="normal" fill="#52616F" text-anchor="start">All attempts retained</text>
<text id="figure3-text-225" x="68.0000" y="260.0000" font-family="Arial" font-size="8.5" font-weight="normal" fill="#213547" text-anchor="middle">01</text>
<text id="figure3-text-226" x="82.3000" y="260.0000" font-family="Arial" font-size="8.5" font-weight="normal" fill="#213547" text-anchor="middle">02</text>
<text id="figure3-text-227" x="96.6000" y="260.0000" font-family="Arial" font-size="8.5" font-weight="normal" fill="#213547" text-anchor="middle">03</text>
<text id="figure3-text-228" x="110.9000" y="260.0000" font-family="Arial" font-size="8.5" font-weight="normal" fill="#213547" text-anchor="middle">04</text>
<text id="figure3-text-229" x="125.2000" y="260.0000" font-family="Arial" font-size="8.5" font-weight="normal" fill="#213547" text-anchor="middle">05</text>
<text id="figure3-text-230" x="139.5000" y="260.0000" font-family="Arial" font-size="8.5" font-weight="normal" fill="#213547" text-anchor="middle">06</text>
<text id="figure3-text-231" x="153.8000" y="260.0000" font-family="Arial" font-size="8.5" font-weight="normal" fill="#213547" text-anchor="middle">07</text>
<text id="figure3-text-232" x="168.1000" y="260.0000" font-family="Arial" font-size="8.5" font-weight="normal" fill="#213547" text-anchor="middle">08</text>
<text id="figure3-text-233" x="182.4000" y="260.0000" font-family="Arial" font-size="8.5" font-weight="normal" fill="#213547" text-anchor="middle">01</text>
<text id="figure3-text-234" x="196.7000" y="260.0000" font-family="Arial" font-size="8.5" font-weight="normal" fill="#213547" text-anchor="middle">02</text>
<text id="figure3-text-235" x="211.0000" y="260.0000" font-family="Arial" font-size="8.5" font-weight="normal" fill="#213547" text-anchor="middle">03</text>
<text id="figure3-text-236" x="225.3000" y="260.0000" font-family="Arial" font-size="8.5" font-weight="normal" fill="#213547" text-anchor="middle">04</text>
<text id="figure3-text-237" x="239.6000" y="260.0000" font-family="Arial" font-size="8.5" font-weight="normal" fill="#213547" text-anchor="middle">05</text>
<text id="figure3-text-238" x="253.9000" y="260.0000" font-family="Arial" font-size="8.5" font-weight="normal" fill="#213547" text-anchor="middle">06</text>
<text id="figure3-text-239" x="268.2000" y="260.0000" font-family="Arial" font-size="8.5" font-weight="normal" fill="#213547" text-anchor="middle">07</text>
<text id="figure3-text-240" x="282.5000" y="260.0000" font-family="Arial" font-size="8.5" font-weight="normal" fill="#213547" text-anchor="middle">08</text>
<text id="figure3-text-241" x="296.8000" y="260.0000" font-family="Arial" font-size="8.5" font-weight="normal" fill="#213547" text-anchor="middle">01</text>
<text id="figure3-text-242" x="311.1000" y="260.0000" font-family="Arial" font-size="8.5" font-weight="normal" fill="#213547" text-anchor="middle">02</text>
<text id="figure3-text-243" x="325.4000" y="260.0000" font-family="Arial" font-size="8.5" font-weight="normal" fill="#213547" text-anchor="middle">03</text>
<text id="figure3-text-244" x="339.7000" y="260.0000" font-family="Arial" font-size="8.5" font-weight="normal" fill="#213547" text-anchor="middle">04</text>
<text id="figure3-text-245" x="354.0000" y="260.0000" font-family="Arial" font-size="8.5" font-weight="normal" fill="#213547" text-anchor="middle">05</text>
<text id="figure3-text-246" x="368.3000" y="260.0000" font-family="Arial" font-size="8.5" font-weight="normal" fill="#213547" text-anchor="middle">06</text>
<text id="figure3-text-247" x="382.6000" y="260.0000" font-family="Arial" font-size="8.5" font-weight="normal" fill="#213547" text-anchor="middle">07</text>
<text id="figure3-text-248" x="396.9000" y="260.0000" font-family="Arial" font-size="8.5" font-weight="normal" fill="#213547" text-anchor="middle">08</text>
<text id="figure3-text-249" x="118.0500" y="275.0000" font-family="Arial" font-size="9" font-weight="normal" fill="#52616F" text-anchor="middle">B01–B08</text>
<text id="figure3-text-250" x="232.4500" y="275.0000" font-family="Arial" font-size="9" font-weight="normal" fill="#52616F" text-anchor="middle">E01–E08</text>
<text id="figure3-text-251" x="346.8500" y="275.0000" font-family="Arial" font-size="9" font-weight="normal" fill="#52616F" text-anchor="middle">C01–C08</text>
</svg>
