<svg xmlns="http://www.w3.org/2000/svg" width="160mm" height="98.425000mm" viewBox="0 0 453.543307 279">
<title>CONSTRUCTED_DEMO — zero physical experiments</title>
<rect id="figure2-rect-1" x="0.0000" y="0.0000" width="453.5433" height="279.0000" fill="#FFFFFF" stroke="none" stroke-width="0.7"/>
<text id="figure2-text-2" x="10.0000" y="14.0000" font-family="Arial" font-size="10.5" font-weight="bold" fill="#213547" text-anchor="start">Valid centers can still require a raised transfer</text>
<text id="figure2-text-3" x="443.5433" y="29.0000" font-family="Arial" font-size="8.5" font-weight="normal" fill="#52616F" text-anchor="end">CONSTRUCTED DEMO</text>
<text id="figure2-text-4" x="25.0000" y="41.0000" font-family="Arial" font-size="10" font-weight="bold" fill="#213547" text-anchor="start">Carrier plan</text>
<rect id="figure2-rect-5" x="25.0000" y="50.0000" width="201.6000" height="159.6000" fill="#F4F7F9" stroke="#B8C5CE" stroke-width="0.7"/>
<rect id="figure2-rect-6" x="39.7000" y="64.7000" width="37.8000" height="29.4000" fill="#FFFFFF" stroke="#B8C5CE" stroke-width="0.7"/>
<rect id="figure2-rect-7" x="50.2000" y="73.1000" width="16.8000" height="12.6000" fill="#DCEFF7" stroke="none" stroke-width="0.7"/>
<rect id="figure2-rect-8" x="106.9000" y="64.7000" width="37.8000" height="29.4000" fill="#FFFFFF" stroke="#B8C5CE" stroke-width="0.7"/>
<rect id="figure2-rect-9" x="117.4000" y="73.1000" width="16.8000" height="12.6000" fill="#DCEFF7" stroke="none" stroke-width="0.7"/>
<rect id="figure2-rect-10" x="174.1000" y="64.7000" width="37.8000" height="29.4000" fill="#FFFFFF" stroke="#B8C5CE" stroke-width="0.7"/>
<rect id="figure2-rect-11" x="184.6000" y="73.1000" width="16.8000" height="12.6000" fill="#DCEFF7" stroke="none" stroke-width="0.7"/>
<rect id="figure2-rect-12" x="39.7000" y="115.1000" width="37.8000" height="29.4000" fill="#FFFFFF" stroke="#B8C5CE" stroke-width="0.7"/>
<rect id="figure2-rect-13" x="50.2000" y="123.5000" width="16.8000" height="12.6000" fill="#DCEFF7" stroke="none" stroke-width="0.7"/>
<rect id="figure2-rect-14" x="106.9000" y="115.1000" width="37.8000" height="29.4000" fill="#FFFFFF" stroke="#B8C5CE" stroke-width="0.7"/>
<rect id="figure2-rect-15" x="117.4000" y="123.5000" width="16.8000" height="12.6000" fill="#DCEFF7" stroke="none" stroke-width="0.7"/>
<rect id="figure2-rect-16" x="174.1000" y="115.1000" width="37.8000" height="29.4000" fill="#FFFFFF" stroke="#B8C5CE" stroke-width="0.7"/>
<rect id="figure2-rect-17" x="184.6000" y="123.5000" width="16.8000" height="12.6000" fill="#DCEFF7" stroke="none" stroke-width="0.7"/>
<rect id="figure2-rect-18" x="39.7000" y="165.5000" width="37.8000" height="29.4000" fill="#FFFFFF" stroke="#B8C5CE" stroke-width="0.7"/>
<rect id="figure2-rect-19" x="50.2000" y="173.9000" width="16.8000" height="12.6000" fill="#DCEFF7" stroke="none" stroke-width="0.7"/>
<rect id="figure2-rect-20" x="106.9000" y="165.5000" width="37.8000" height="29.4000" fill="#FFFFFF" stroke="#B8C5CE" stroke-width="0.7"/>
<rect id="figure2-rect-21" x="117.4000" y="173.9000" width="16.8000" height="12.6000" fill="#DCEFF7" stroke="none" stroke-width="0.7"/>
<rect id="figure2-rect-22" x="174.1000" y="165.5000" width="37.8000" height="29.4000" fill="#FFFFFF" stroke="#B8C5CE" stroke-width="0.7"/>
<rect id="figure2-rect-23" x="184.6000" y="173.9000" width="16.8000" height="12.6000" fill="#DCEFF7" stroke="none" stroke-width="0.7"/>
<rect id="figure2-rect-24" x="92.2000" y="85.7000" width="67.2000" height="37.8000" fill="none" stroke="#AD4147" stroke-width="1" stroke-dasharray="3 2"/>
<rect id="figure2-rect-25" x="104.8000" y="98.3000" width="42.0000" height="12.6000" fill="#CBAB5C" stroke="#52616F" stroke-width="0.7"/>
<polyline id="figure2-line-26" points="41.8000,192.8000 125.8000,180.2000" fill="none" stroke="#086FA2" stroke-width="1.3"/>
<polygon id="figure2-poly-27" points="125.8000,180.2000 122.5928,182.5903 122.0326,178.8559" fill="#086FA2" stroke="none" stroke-width="0.7"/>
<polyline id="figure2-line-28" points="125.8000,180.2000 125.8000,129.8000" fill="none" stroke="#086FA2" stroke-width="1.3"/>
<polygon id="figure2-poly-29" points="125.8000,129.8000 127.6881,133.3263 123.9119,133.3263" fill="#086FA2" stroke="none" stroke-width="0.7"/>
<polyline id="figure2-line-30" points="125.8000,129.8000 125.8000,79.4000" fill="none" stroke="#AD4147" stroke-width="1.3"/>
<polygon id="figure2-poly-31" points="125.8000,79.4000 127.6881,82.9263 123.9119,82.9263" fill="#AD4147" stroke="none" stroke-width="0.7"/>
<polyline id="figure2-line-32" points="125.8000,79.4000 41.8000,192.8000" fill="none" stroke="#AD4147" stroke-width="1.3"/>
<polygon id="figure2-poly-33" points="41.8000,192.8000 42.3818,188.8425 45.4162,191.0903" fill="#AD4147" stroke="none" stroke-width="0.7"/>
<circle id="figure2-circle-34" cx="125.8000" cy="180.2000" r="3" fill="#086FA2" stroke="none" stroke-width="0.8"/>
<text id="figure2-text-35" x="135.8000" y="183.2000" font-family="Arial" font-size="9.5" font-weight="bold" fill="#213547" text-anchor="start">SC</text>
<circle id="figure2-circle-36" cx="125.8000" cy="129.8000" r="3" fill="#086FA2" stroke="none" stroke-width="0.8"/>
<text id="figure2-text-37" x="135.8000" y="132.8000" font-family="Arial" font-size="9.5" font-weight="bold" fill="#213547" text-anchor="start">MC</text>
<circle id="figure2-circle-38" cx="125.8000" cy="79.4000" r="3" fill="#086FA2" stroke="none" stroke-width="0.8"/>
<text id="figure2-text-39" x="135.8000" y="82.4000" font-family="Arial" font-size="9.5" font-weight="bold" fill="#213547" text-anchor="start">NC</text>
<rect id="figure2-rect-40" x="33.0000" y="198.7000" width="5.0000" height="5.0000" fill="#213547" stroke="none" stroke-width="0.7"/>
<rect id="figure2-rect-41" x="213.6000" y="198.7000" width="5.0000" height="5.0000" fill="#213547" stroke="none" stroke-width="0.7"/>
<polygon id="figure2-poly-42" points="33.4000,55.4000 30.4000,61.4000 36.4000,61.4000" fill="#745A99" stroke="none" stroke-width="0.7"/>
<polygon id="figure2-poly-43" points="218.2000,55.4000 215.2000,61.4000 221.2000,61.4000" fill="#745A99" stroke="none" stroke-width="0.7"/>
<polygon id="figure2-poly-44" points="125.8000,198.2000 122.8000,204.2000 128.8000,204.2000" fill="#745A99" stroke="none" stroke-width="0.7"/>
<circle id="figure2-circle-45" cx="41.8000" cy="192.8000" r="3.2" fill="#FFFFFF" stroke="#213547" stroke-width="0.8"/>
<text id="figure2-text-46" x="9.0000" y="225.0000" font-family="Arial" font-size="9" font-weight="normal" fill="#213547" text-anchor="start">PARK (−40, −30)</text>
<polyline id="figure2-line-47" points="45.0000,218.0000 41.8000,196.8000" fill="none" stroke="#52616F" stroke-width="0.65"/>
<polyline id="figure2-line-48" points="239.0000,77.0000 239.0000,54.0000" fill="none" stroke="#52616F" stroke-width="0.8"/>
<polygon id="figure2-poly-49" points="239.0000,54.0000 240.8881,57.5263 237.1119,57.5263" fill="#52616F" stroke="none" stroke-width="0.7"/>
<text id="figure2-text-50" x="239.0000" y="48.0000" font-family="Arial" font-size="9" font-weight="normal" fill="#213547" text-anchor="middle">N</text>
<polyline id="figure2-line-51" points="25.0000,237.0000 226.6000,237.0000" fill="none" stroke="#52616F" stroke-width="0.6"/>
<polyline id="figure2-line-52" points="25.0000,234.0000 25.0000,240.0000" fill="none" stroke="#52616F" stroke-width="0.6"/>
<polyline id="figure2-line-53" points="226.6000,234.0000 226.6000,240.0000" fill="none" stroke="#52616F" stroke-width="0.6"/>
<text id="figure2-text-54" x="125.8000" y="250.0000" font-family="Arial" font-size="9" font-weight="normal" fill="#213547" text-anchor="middle">96 mm</text>
<text id="figure2-text-55" x="279.0000" y="58.0000" font-family="Arial" font-size="10" font-weight="bold" fill="#213547" text-anchor="start">x = 0 section</text>
<polyline id="figure2-line-56" points="278.0000,207.0000 422.0000,207.0000" fill="none" stroke="#52616F" stroke-width="0.7"/>
<polyline id="figure2-line-57" points="278.0000,207.0000 426.8000,207.0000" fill="none" stroke="#52616F" stroke-width="0.7"/>
<polygon id="figure2-poly-58" points="426.8000,207.0000 424.1553,208.4161 424.1553,205.5839" fill="#52616F" stroke="none" stroke-width="0.7"/>
<text id="figure2-text-59" x="424.0000" y="219.0000" font-family="Arial" font-size="9" font-weight="normal" fill="#213547" text-anchor="start">y</text>
<rect id="figure2-rect-60" x="321.2000" y="139.0000" width="28.8000" height="68.0000" fill="#CBAB5C" stroke="#52616F" stroke-width="0.7"/>
<text id="figure2-text-61" x="335.6000" y="191.0000" font-family="Arial" font-size="9" font-weight="normal" fill="#213547" text-anchor="middle">Clip</text>
<polyline id="figure2-line-62" points="306.8000,166.0000 306.8000,183.0000 364.4000,183.0000 364.4000,166.0000" fill="none" stroke="#AD4147" stroke-width="1.4" stroke-dasharray="3 2"/>
<text id="figure2-text-63" x="391.0000" y="186.0000" font-family="Arial" font-size="9" font-weight="normal" fill="#AD4147" text-anchor="start">1.2 mm</text>
<polyline id="figure2-line-64" points="306.8000,102.0000 306.8000,119.0000 364.4000,119.0000 364.4000,102.0000" fill="none" stroke="#086FA2" stroke-width="1.4"/>
<text id="figure2-text-65" x="391.0000" y="122.0000" font-family="Arial" font-size="9" font-weight="normal" fill="#086FA2" text-anchor="start">4.4 mm</text>
<text id="figure2-text-66" x="281.0000" y="91.0000" font-family="Arial" font-size="9.5" font-weight="normal" fill="#086FA2" text-anchor="start">Shoe underside</text>
<text id="figure2-text-67" x="278.0000" y="234.0000" font-family="Arial" font-size="9" font-weight="normal" fill="#213547" text-anchor="start">12 mm envelope in y</text>
<text id="figure2-text-68" x="278.0000" y="250.0000" font-family="Arial" font-size="9.5" font-weight="bold" fill="#213547" text-anchor="start">Raise + lower: 0.74 s</text>
<polyline id="figure2-line-69" points="369.2000,139.0000 383.6000,139.0000" fill="none" stroke="#52616F" stroke-width="0.6"/>
<polyline id="figure2-line-70" points="369.2000,119.0000 383.6000,119.0000" fill="none" stroke="#52616F" stroke-width="0.6"/>
<polyline id="figure2-line-71" points="378.8000,139.0000 378.8000,119.0000" fill="none" stroke="#52616F" stroke-width="0.7"/>
<polygon id="figure2-poly-72" points="378.8000,119.0000 380.2161,121.6447 377.3839,121.6447" fill="#52616F" stroke="none" stroke-width="0.7"/>
<polyline id="figure2-line-73" points="378.8000,119.0000 378.8000,139.0000" fill="none" stroke="#52616F" stroke-width="0.7"/>
<polygon id="figure2-poly-74" points="378.8000,139.0000 377.3839,136.3553 380.2161,136.3553" fill="#52616F" stroke="none" stroke-width="0.7"/>
<text id="figure2-text-75" x="393.0000" y="145.0000" font-family="Arial" font-size="8.5" font-weight="normal" fill="#52616F" text-anchor="start">1.0 mm</text>
<rect id="figure2-rect-76" x="13.0000" y="264.0000" width="10.0000" height="6.0000" fill="#CBAB5C" stroke="#52616F" stroke-width="0.7"/>
<text id="figure2-text-77" x="29.0000" y="271.0000" font-family="Arial" font-size="8.5" font-weight="normal" fill="#213547" text-anchor="start">Clip</text>
<polyline id="figure2-line-78" points="78.0000,267.0000 92.0000,267.0000" fill="none" stroke="#AD4147" stroke-width="1" stroke-dasharray="3 2"/>
<text id="figure2-text-79" x="98.0000" y="271.0000" font-family="Arial" font-size="8.5" font-weight="normal" fill="#213547" text-anchor="start">Center keepout</text>
<polyline id="figure2-line-80" points="200.0000,267.0000 214.0000,267.0000" fill="none" stroke="#AD4147" stroke-width="1.3"/>
<text id="figure2-text-81" x="220.0000" y="271.0000" font-family="Arial" font-size="8.5" font-weight="normal" fill="#213547" text-anchor="start">Raised segment</text>
<rect id="figure2-rect-82" x="326.0000" y="264.0000" width="5.0000" height="5.0000" fill="#213547" stroke="none" stroke-width="0.7"/>
<text id="figure2-text-83" x="336.0000" y="271.0000" font-family="Arial" font-size="8.5" font-weight="normal" fill="#213547" text-anchor="start">Fiducial</text>
<polygon id="figure2-poly-84" points="393.0000,263.0000 390.0000,269.0000 396.0000,269.0000" fill="#745A99" stroke="none" stroke-width="0.7"/>
<text id="figure2-text-85" x="401.0000" y="271.0000" font-family="Arial" font-size="8.5" font-weight="normal" fill="#213547" text-anchor="start">Datum</text>
</svg>
