<svg xmlns="http://www.w3.org/2000/svg" width="160mm" height="85.6mm" viewBox="0 0 1000 535"><rect width="100%" height="100%" fill="white"/><text x="35" y="33" font-family="Arial" font-size="25" font-weight="700" text-anchor="start" fill="#233A45">a</text><text x="75" y="33" font-family="Arial" font-size="27" font-weight="700" text-anchor="start" fill="#233A45">Seat freely</text><text x="535" y="33" font-family="Arial" font-size="25" font-weight="700" text-anchor="start" fill="#233A45">b</text><text x="575" y="33" font-family="Arial" font-size="27" font-weight="700" text-anchor="start" fill="#233A45">Hold contact, then lock</text><polygon points="36,298 307,298 342,275 71,275" fill="#E9EDEE" stroke="#ADBCC2" stroke-width="1.5"/><polygon points="36,298 307,298 307,317 36,317" fill="#C5D0D4" stroke="#879BA4" stroke-width="1.5"/><polygon points="307,298 342,275 342,294 307,317" fill="#9DB0B9" stroke="#879BA4" stroke-width="1.5"/><polygon points="60,247 280,223 315,200 95,224" fill="#EED7A6" stroke="#B29867" stroke-width="1.5"/><polygon points="60,247 280,223 280,298 60,298" fill="#DDBD79" stroke="#B29867" stroke-width="1.5"/><polygon points="280,223 315,200 315,275 280,298" fill="#B29356" stroke="#A48A5A" stroke-width="1.5"/><polygon points="161,151 186,151 186,227 161,227" fill="#CBD5D9" stroke="#9EAFB7" stroke-width="1.5"/><polygon points="109,125 238,125 266,107 137,107" fill="#F0F3F4" stroke="#A6B6BE" stroke-width="1.5"/><polygon points="109,125 238,125 238,154 109,154" fill="#D5DFE2" stroke="#A6B6BE" stroke-width="1.5"/><polygon points="238,125 266,107 266,136 238,154" fill="#B4C5CC" stroke="#A6B6BE" stroke-width="1.5"/><polygon points="60,222 280,198 315,175 95,199" fill="#BDD8D9" stroke="#5C8C92" stroke-width="1.5"/><polygon points="60,222 280,198 280,223 60,247" fill="#77ADB2" stroke="#4F8289" stroke-width="1.5"/><polygon points="280,198 315,175 315,200 280,223" fill="#4F8289" stroke="#4F8289" stroke-width="1.5"/><circle cx="173" cy="222" r="14" fill="#F8FAFA" stroke="#526E7B" stroke-width="2"/><circle cx="173" cy="222" r="4" fill="#526E7B" stroke="#526E7B" stroke-width="1.5"/><polyline points="341,193 341,179 346,171 356,171 361,179 361,186" fill="none" stroke="#377F86" stroke-width="2.8"/><polygon points="336,193 366,193 366,216 336,216" fill="#FFFFFF" stroke="#377F86" stroke-width="2"/><polyline points="336,203 320,214 187,222" fill="none" stroke="#576D75" stroke-width="1.4"/><polyline points="175,78 175,103" fill="none" stroke="#233A45" stroke-width="2"/><polygon points="175,103 171.49523491922216,94.71045105397403 178.50476508077784,94.71045105397403" fill="#233A45" stroke="none" stroke-width="1.5"/><polyline points="115,209 128,194 145,187" fill="none" stroke="#377F86" stroke-width="2"/><polygon points="145,187 136,184 140,195" fill="#377F86" stroke="none" stroke-width="1.5"/><polygon points="536,298 807,298 842,275 571,275" fill="#E9EDEE" stroke="#ADBCC2" stroke-width="1.5"/><polygon points="536,298 807,298 807,317 536,317" fill="#C5D0D4" stroke="#879BA4" stroke-width="1.5"/><polygon points="807,298 842,275 842,294 807,317" fill="#9DB0B9" stroke="#879BA4" stroke-width="1.5"/><polygon points="560,247 780,223 815,200 595,224" fill="#EED7A6" stroke="#B29867" stroke-width="1.5"/><polygon points="560,247 780,223 780,298 560,298" fill="#DDBD79" stroke="#B29867" stroke-width="1.5"/><polygon points="780,223 815,200 815,275 780,298" fill="#B29356" stroke="#A48A5A" stroke-width="1.5"/><polygon points="661,151 686,151 686,227 661,227" fill="#CBD5D9" stroke="#9EAFB7" stroke-width="1.5"/><polygon points="609,125 738,125 766,107 637,107" fill="#F0F3F4" stroke="#A6B6BE" stroke-width="1.5"/><polygon points="609,125 738,125 738,154 609,154" fill="#D5DFE2" stroke="#A6B6BE" stroke-width="1.5"/><polygon points="738,125 766,107 766,136 738,154" fill="#B4C5CC" stroke="#A6B6BE" stroke-width="1.5"/><polygon points="560,222 780,198 815,175 595,199" fill="#BDD8D9" stroke="#5C8C92" stroke-width="1.5"/><polygon points="560,222 780,198 780,223 560,247" fill="#77ADB2" stroke="#4F8289" stroke-width="1.5"/><polygon points="780,198 815,175 815,200 780,223" fill="#4F8289" stroke="#4F8289" stroke-width="1.5"/><circle cx="673" cy="222" r="14" fill="#F8FAFA" stroke="#526E7B" stroke-width="2"/><circle cx="673" cy="222" r="4" fill="#526E7B" stroke="#526E7B" stroke-width="1.5"/><polyline points="841,193 841,179 846,171 856,171 861,179 861,193" fill="none" stroke="#AC503D" stroke-width="2.8"/><polygon points="836,193 866,193 866,216 836,216" fill="#AC503D" stroke="#AC503D" stroke-width="2"/><polyline points="836,203 820,214 687,222" fill="none" stroke="#576D75" stroke-width="1.4"/><polyline points="675,78 675,103" fill="none" stroke="#233A45" stroke-width="2"/><polygon points="675,103 671.4952349192222,94.71045105397403 678.5047650807778,94.71045105397403" fill="#233A45" stroke="none" stroke-width="1.5"/><text x="175" y="65" font-family="Arial" font-size="22" font-weight="400" text-anchor="middle" fill="#576D75">10 N preload</text><text x="675" y="65" font-family="Arial" font-size="22" font-weight="400" text-anchor="middle" fill="#576D75">0.20 mm ramp after locking</text><polyline points="435,236 500,236" fill="none" stroke="#576D75" stroke-width="2"/><polygon points="500,236 491.71045105397405,239.50476508077784 491.71045105397405,232.49523491922216" fill="#576D75" stroke="none" stroke-width="1.5"/><text x="363" y="168" font-family="Arial" font-size="21" font-weight="400" text-anchor="middle" fill="#377F86">Open</text><text x="863" y="168" font-family="Arial" font-size="21" font-weight="400" text-anchor="middle" fill="#AC503D">Closed</text><text x="36" y="345" font-family="Arial" font-size="22" font-weight="400" text-anchor="start" fill="#233A45">Pad</text><polyline points="81,338 60,302 60,248 73,233" fill="none" stroke="#576D75" stroke-width="1.2"/><text x="148" y="345" font-family="Arial" font-size="22" font-weight="400" text-anchor="start" fill="#233A45">Coupon</text><polyline points="192,328 192,276" fill="none" stroke="#576D75" stroke-width="1.2"/><text x="287" y="345" font-family="Arial" font-size="22" font-weight="400" text-anchor="start" fill="#233A45">Fixed platen</text><polyline points="300,328 300,308" fill="none" stroke="#576D75" stroke-width="1.2"/><text x="595" y="345" font-family="Arial" font-size="22" font-weight="400" text-anchor="start" fill="#576D75">One pitch axis; no roll adjustment</text><polyline points="35,371 963,371" fill="none" stroke="#DDE4E6" stroke-width="1.5"/><text x="35" y="400" font-family="Arial" font-size="22" font-weight="700" text-anchor="start" fill="#233A45">Lock timing</text><text x="470" y="400" font-family="Arial" font-size="21" font-weight="400" text-anchor="middle" fill="#576D75">Approach</text><text x="695" y="400" font-family="Arial" font-size="21" font-weight="400" text-anchor="middle" fill="#576D75">Ramp</text><text x="36" y="433" font-family="Arial" font-size="22" font-weight="700" text-anchor="start" fill="#647680">E</text><text x="75" y="433" font-family="Arial" font-size="22" font-weight="400" text-anchor="start" fill="#233A45">Lock before approach</text><polyline points="470,425 695,425" fill="none" stroke="#C7D2D5" stroke-width="2"/><circle cx="470" cy="425" r="7" fill="#AC503D" stroke="#AC503D" stroke-width="2"/><circle cx="695" cy="425" r="7" fill="#AC503D" stroke="#AC503D" stroke-width="2"/><text x="36" y="471" font-family="Arial" font-size="22" font-weight="700" text-anchor="start" fill="#377F86">F</text><text x="75" y="471" font-family="Arial" font-size="22" font-weight="400" text-anchor="start" fill="#233A45">Remain free</text><polyline points="470,463 695,463" fill="none" stroke="#C7D2D5" stroke-width="2"/><circle cx="470" cy="463" r="7" fill="#FFFFFF" stroke="#377F86" stroke-width="2"/><circle cx="695" cy="463" r="7" fill="#FFFFFF" stroke="#377F86" stroke-width="2"/><text x="36" y="509" font-family="Arial" font-size="22" font-weight="700" text-anchor="start" fill="#AC503D">L</text><text x="75" y="509" font-family="Arial" font-size="22" font-weight="400" text-anchor="start" fill="#233A45">Seat then lock</text><polyline points="470,501 695,501" fill="none" stroke="#C7D2D5" stroke-width="2"/><circle cx="470" cy="501" r="7" fill="#FFFFFF" stroke="#377F86" stroke-width="2"/><circle cx="695" cy="501" r="7" fill="#AC503D" stroke="#AC503D" stroke-width="2"/><text x="584" y="495" font-family="Arial" font-size="19" font-weight="400" text-anchor="middle" fill="#AC503D">lock</text><circle cx="805" cy="432" r="7" fill="#FFFFFF" stroke="#377F86" stroke-width="2"/><text x="823" y="439" font-family="Arial" font-size="21" font-weight="400" text-anchor="start" fill="#576D75">free</text><circle cx="805" cy="470" r="7" fill="#AC503D" stroke="#AC503D" stroke-width="2"/><text x="823" y="477" font-family="Arial" font-size="21" font-weight="400" text-anchor="start" fill="#576D75">locked</text></svg>