<svg xmlns="http://www.w3.org/2000/svg" width="160mm" height="71.66666666666667mm" viewBox="0 0 960 430"><title>Filter replacement with flow stopped</title><desc>Illustrative cutaway of one candidate housing and one translated cartridge; ghost outline denotes its seated position. No flow is shown.</desc><rect width="960" height="430" fill="white"/><text id="mark-1" data-entity="" x="10" y="31" font-family="Arial" font-size="23" font-weight="bold" text-anchor="start" fill="#263B46">a</text><text id="mark-2" data-entity="" x="39" y="31" font-family="Arial" font-size="21" font-weight="bold" text-anchor="start" fill="#263B46">Remove the housing</text><text id="mark-3" data-entity="" x="344" y="31" font-family="Arial" font-size="23" font-weight="bold" text-anchor="start" fill="#263B46">b</text><text id="mark-4" data-entity="" x="376" y="31" font-family="Arial" font-size="21" font-weight="bold" text-anchor="start" fill="#263B46">Withdraw the cartridge</text><text id="mark-5" data-entity="" x="10" y="72" font-family="Arial" font-size="19" font-weight="normal" text-anchor="start" fill="#263B46">Both operations: flow stopped</text><rect id="mark-6" data-entity="fixed-left-pipe" x="18" y="303" width="58" height="26" rx="0" fill="#E7EEF1" stroke="#607580" stroke-width="1.3"></rect><rect id="mark-7" data-entity="fixed-left-pipe" x="18" y="305" width="58" height="5" rx="0" fill="#F6F9FA" stroke="none" stroke-width="1.3"></rect><ellipse id="mark-8" data-entity="fixed-left-pipe" cx="76" cy="316" rx="5" ry="13" fill="#BCD0D8" stroke="#607580" stroke-width="1.3"></ellipse><ellipse id="mark-9" data-entity="fixed-left-pipe" cx="76" cy="316" rx="2.5" ry="8" fill="white" stroke="#607580" stroke-width="1.3"></ellipse><rect id="mark-10" data-entity="fixed-right-pipe" x="222" y="303" width="69" height="26" rx="0" fill="#E7EEF1" stroke="#607580" stroke-width="1.3"></rect><rect id="mark-11" data-entity="fixed-right-pipe" x="222" y="305" width="69" height="5" rx="0" fill="#F6F9FA" stroke="none" stroke-width="1.3"></rect><ellipse id="mark-12" data-entity="fixed-right-pipe" cx="291" cy="316" rx="5" ry="13" fill="#BCD0D8" stroke="#607580" stroke-width="1.3"></ellipse><ellipse id="mark-13" data-entity="fixed-right-pipe" cx="291" cy="316" rx="2.5" ry="8" fill="white" stroke="#607580" stroke-width="1.3"></ellipse><ellipse id="mark-14" data-entity="fixed-right-pipe" cx="222" cy="316" rx="5" ry="13" fill="#BCD0D8" stroke="#607580" stroke-width="1.3"></ellipse><ellipse id="mark-15" data-entity="fixed-right-pipe" cx="222" cy="316" rx="2.5" ry="8" fill="white" stroke="#607580" stroke-width="1.3"></ellipse><polyline id="mark-16" data-entity="previous-housing-position" points="86,280 86,350" fill="none" stroke="#A7B7C0" stroke-width="1.1" stroke-linecap="round" stroke-linejoin="round" stroke-dasharray="4 4"></polyline><polyline id="mark-17" data-entity="previous-housing-position" points="212,280 212,350" fill="none" stroke="#A7B7C0" stroke-width="1.1" stroke-linecap="round" stroke-linejoin="round" stroke-dasharray="4 4"></polyline><polyline id="mark-18" data-entity="previous-housing-position" points="86,280 212,280" fill="none" stroke="#A7B7C0" stroke-width="1.1" stroke-linecap="round" stroke-linejoin="round" stroke-dasharray="4 4"></polyline><polyline id="mark-19" data-entity="previous-housing-position" points="86,350 212,350" fill="none" stroke="#A7B7C0" stroke-width="1.1" stroke-linecap="round" stroke-linejoin="round" stroke-dasharray="4 4"></polyline><rect id="mark-20" data-entity="moving-housing-interface" x="61" y="165.5" width="29" height="26" rx="0" fill="#E7EEF1" stroke="#607580" stroke-width="1.3"></rect><rect id="mark-21" data-entity="moving-housing-interface" x="61" y="167.5" width="29" height="5" rx="0" fill="#F6F9FA" stroke="none" stroke-width="1.3"></rect><ellipse id="mark-22" data-entity="moving-housing-interface" cx="90" cy="178.5" rx="5" ry="13" fill="#BCD0D8" stroke="#607580" stroke-width="1.3"></ellipse><ellipse id="mark-23" data-entity="moving-housing-interface" cx="90" cy="178.5" rx="2.5" ry="8" fill="white" stroke="#607580" stroke-width="1.3"></ellipse><rect id="mark-24" data-entity="moving-housing-interface" x="208" y="165.5" width="36" height="26" rx="0" fill="#E7EEF1" stroke="#607580" stroke-width="1.3"></rect><rect id="mark-25" data-entity="moving-housing-interface" x="208" y="167.5" width="36" height="5" rx="0" fill="#F6F9FA" stroke="none" stroke-width="1.3"></rect><ellipse id="mark-26" data-entity="moving-housing-interface" cx="244" cy="178.5" rx="5" ry="13" fill="#BCD0D8" stroke="#607580" stroke-width="1.3"></ellipse><ellipse id="mark-27" data-entity="moving-housing-interface" cx="244" cy="178.5" rx="2.5" ry="8" fill="white" stroke="#607580" stroke-width="1.3"></ellipse><polygon id="mark-28" data-entity="conventional-housing" points="86,124 122,101 248,101 212,124" fill="#F6F9FA" stroke="#607580" stroke-width="1.3"></polygon><polygon id="mark-29" data-entity="conventional-housing" points="212,124 248,101 248,210 212,233" fill="#BCD0D8" stroke="#607580" stroke-width="1.3"></polygon><rect id="mark-30" data-entity="conventional-housing" x="86" y="124" width="126" height="109" rx="5" fill="#E7EEF1" stroke="#607580" stroke-width="1.3"></rect><rect id="mark-31" data-entity="conventional-housing" x="98" y="138" width="102" height="81" rx="4" fill="#F4F7F8" stroke="#C1CDD2" stroke-width="1"></rect><polyline id="mark-32" data-entity="conventional-housing" points="105,212 193,212" fill="none" stroke="#ABBCC5" stroke-width="1" stroke-linecap="round" stroke-linejoin="round"></polyline><polyline id="mark-33" data-entity="housing-motion" points="149,291 149,247" fill="none" stroke="#263B46" stroke-width="2.2" stroke-linecap="round" stroke-linejoin="round"></polyline><polygon id="mark-34" data-entity="housing-motion" points="149,247 153.7,258.0 144.3,258.0" fill="#263B46" stroke="none" stroke-width="1.3"></polygon><text id="mark-35" data-entity="" x="155" y="404" font-family="Arial" font-size="19" font-weight="normal" text-anchor="middle" fill="#263B46">Housing detached</text><rect id="mark-36" data-entity="candidate-inlet" x="520" y="207" width="86" height="26" rx="0" fill="#E7EEF1" stroke="#607580" stroke-width="1.3"></rect><rect id="mark-37" data-entity="candidate-inlet" x="520" y="209" width="86" height="5" rx="0" fill="#F6F9FA" stroke="none" stroke-width="1.3"></rect><ellipse id="mark-38" data-entity="candidate-inlet" cx="606" cy="220" rx="5" ry="13" fill="#BCD0D8" stroke="#607580" stroke-width="1.3"></ellipse><ellipse id="mark-39" data-entity="candidate-inlet" cx="606" cy="220" rx="2.5" ry="8" fill="white" stroke="#607580" stroke-width="1.3"></ellipse><rect id="mark-40" data-entity="candidate-outlet" x="789" y="207" width="104" height="26" rx="0" fill="#E7EEF1" stroke="#607580" stroke-width="1.3"></rect><rect id="mark-41" data-entity="candidate-outlet" x="789" y="209" width="104" height="5" rx="0" fill="#F6F9FA" stroke="none" stroke-width="1.3"></rect><ellipse id="mark-42" data-entity="candidate-outlet" cx="893" cy="220" rx="5" ry="13" fill="#BCD0D8" stroke="#607580" stroke-width="1.3"></ellipse><ellipse id="mark-43" data-entity="candidate-outlet" cx="893" cy="220" rx="2.5" ry="8" fill="white" stroke="#607580" stroke-width="1.3"></ellipse><polygon id="mark-44" data-entity="candidate-housing" points="608,162 657,131 837,131 788,162" fill="#F6F9FA" stroke="#607580" stroke-width="1.3"></polygon><polygon id="mark-45" data-entity="candidate-housing" points="788,162 837,131 837,247 788,278" fill="#BCD0D8" stroke="#607580" stroke-width="1.3"></polygon><polygon id="mark-46" data-entity="candidate-housing" points="620,266 657,235 825,235 776,266" fill="#D3E1E6" stroke="#607580" stroke-width="1.3"></polygon><rect id="mark-47" data-entity="candidate-housing" x="608" y="162" width="180" height="116" rx="0" fill="#E7EEF1" stroke="none" stroke-width="1.3"></rect><polyline id="mark-48" data-entity="cartridge-seated-reference" points="621,263 774,263 774,177 621,177 621,263" fill="none" stroke="#A7B7C0" stroke-width="1.3" stroke-linecap="round" stroke-linejoin="round" stroke-dasharray="4 4"></polyline><polyline id="mark-49" data-entity="cartridge-seated-reference" points="621,177 659,152 812,152 774,177" fill="none" stroke="#A7B7C0" stroke-width="1.3" stroke-linecap="round" stroke-linejoin="round" stroke-dasharray="4 4"></polyline><polyline id="mark-50" data-entity="cartridge-seated-reference" points="774,263 812,238 812,152" fill="none" stroke="#A7B7C0" stroke-width="1.3" stroke-linecap="round" stroke-linejoin="round" stroke-dasharray="4 4"></polyline><polyline id="mark-51" data-entity="seated-filter-reference-1" points="643,256 681,231 681,159 643,184 643,256" fill="none" stroke="#8198A4" stroke-width="1.1" stroke-linecap="round" stroke-linejoin="round" stroke-dasharray="4 4"></polyline><text id="mark-52" data-entity="seated-filter-reference-1" x="664.0" y="223.0" font-family="Arial" font-size="19" font-weight="normal" text-anchor="middle" fill="#6D8794">1</text><polyline id="mark-53" data-entity="seated-filter-reference-2" points="720,256 758,231 758,159 720,184 720,256" fill="none" stroke="#8198A4" stroke-width="1.1" stroke-linecap="round" stroke-linejoin="round" stroke-dasharray="4 4"></polyline><text id="mark-54" data-entity="seated-filter-reference-2" x="741.0" y="223.0" font-family="Arial" font-size="19" font-weight="normal" text-anchor="middle" fill="#6D8794">2</text><rect id="mark-55" data-entity="fixed-seal" x="616" y="174" width="164" height="94" rx="6" fill="none" stroke="#936288" stroke-width="4.5"></rect><polyline id="mark-56" data-entity="candidate-housing" points="608,162 788,162 788,278 608,278 608,162" fill="none" stroke="#607580" stroke-width="1.4" stroke-linecap="round" stroke-linejoin="round"></polyline><polyline id="mark-57" data-entity="cartridge-frame" points="519,330.10526315789474 672,330.10526315789474 672,244.10526315789474 519,244.10526315789474 519,330.10526315789474" fill="none" stroke="#27728D" stroke-width="5" stroke-linecap="round" stroke-linejoin="round"></polyline><polygon id="mark-58" data-entity="filter-1" points="503,348.10526315789474 541,323.10526315789474 541,251.10526315789474 503,276.10526315789474" fill="#E2B454" stroke="#A98128" stroke-width="1.5"></polygon><polygon id="mark-59" data-entity="filter-1" points="503,276.10526315789474 541,251.10526315789474 547,251.10526315789474 509,276.10526315789474" fill="#F6E5B8" stroke="#A98128" stroke-width="1"></polygon><polygon id="mark-60" data-entity="filter-1" points="503,348.10526315789474 509,348.10526315789474 509,276.10526315789474 503,276.10526315789474" fill="#A98128" stroke="none" stroke-width="1.3"></polygon><text id="mark-61" data-entity="filter-1" x="524.0" y="315.10526315789474" font-family="Arial" font-size="21" font-weight="bold" text-anchor="middle" fill="#263B46">1</text><polygon id="mark-62" data-entity="filter-2" points="580,348.10526315789474 618,323.10526315789474 618,251.10526315789474 580,276.10526315789474" fill="#79B5AA" stroke="#427F76" stroke-width="1.5"></polygon><polygon id="mark-63" data-entity="filter-2" points="580,276.10526315789474 618,251.10526315789474 624,251.10526315789474 586,276.10526315789474" fill="#D1E9E2" stroke="#427F76" stroke-width="1"></polygon><polygon id="mark-64" data-entity="filter-2" points="580,348.10526315789474 586,348.10526315789474 586,276.10526315789474 580,276.10526315789474" fill="#427F76" stroke="none" stroke-width="1.3"></polygon><text id="mark-65" data-entity="filter-2" x="601.0" y="315.10526315789474" font-family="Arial" font-size="21" font-weight="bold" text-anchor="middle" fill="#263B46">2</text><polyline id="mark-66" data-entity="cartridge-frame" points="481,355.10526315789474 519,330.10526315789474" fill="none" stroke="#27728D" stroke-width="5" stroke-linecap="round" stroke-linejoin="round"></polyline><polyline id="mark-67" data-entity="cartridge-frame" points="634,355.10526315789474 672,330.10526315789474" fill="none" stroke="#27728D" stroke-width="5" stroke-linecap="round" stroke-linejoin="round"></polyline><polyline id="mark-68" data-entity="cartridge-frame" points="481,269.10526315789474 519,244.10526315789474" fill="none" stroke="#27728D" stroke-width="5" stroke-linecap="round" stroke-linejoin="round"></polyline><polyline id="mark-69" data-entity="cartridge-frame" points="634,269.10526315789474 672,244.10526315789474" fill="none" stroke="#27728D" stroke-width="5" stroke-linecap="round" stroke-linejoin="round"></polyline><rect id="mark-70" data-entity="cartridge-frame" x="481" y="269.10526315789474" width="153" height="86" rx="2" fill="none" stroke="#27728D" stroke-width="6"></rect><polyline id="mark-71" data-entity="cartridge-motion" points="505,244 461,272.9473684210526" fill="none" stroke="#263B46" stroke-width="2.2" stroke-linecap="round" stroke-linejoin="round"></polyline><polygon id="mark-72" data-entity="cartridge-motion" points="461,272.9473684210526 467.6063903477448,262.97512661826704 472.7727854616218,270.82804719136004" fill="#263B46" stroke="none" stroke-width="1.3"></polygon><polyline id="mark-73" data-entity="seal-label" points="759,174 840,125" fill="none" stroke="#607580" stroke-width="1.1" stroke-linecap="round" stroke-linejoin="round"></polyline><text id="mark-74" data-entity="" x="848" y="129" font-family="Arial" font-size="19" font-weight="normal" text-anchor="start" fill="#263B46">Seal stays</text><polyline id="mark-75" data-entity="housing-label" points="816,241 875,279" fill="none" stroke="#607580" stroke-width="1.1" stroke-linecap="round" stroke-linejoin="round"></polyline><text id="mark-76" data-entity="" x="927" y="307" font-family="Arial" font-size="19" font-weight="normal" text-anchor="end" fill="#263B46">Housing stays</text><text id="mark-77" data-entity="" x="577" y="408" font-family="Arial" font-size="20" font-weight="normal" text-anchor="middle" fill="#263B46">Cartridge</text><text id="mark-78" data-entity="" x="700" y="108" font-family="Arial" font-size="19" font-weight="normal" text-anchor="middle" fill="#263B46">Seated position</text><text id="mark-79" data-entity="" x="526" y="197" font-family="Arial" font-size="19" font-weight="normal" text-anchor="start" fill="#263B46">Inlet</text><text id="mark-80" data-entity="" x="899" y="197" font-family="Arial" font-size="19" font-weight="normal" text-anchor="end" fill="#263B46">Outlet</text></svg>