<?xml version='1.0' encoding='utf-8'?>
<svg xmlns="http://www.w3.org/2000/svg" width="160mm" height="97.77777778mm" viewBox="0 0 720 440"><title>DEMO: selective viewing by rotating an opaque cover</title><desc>Three views repeat one eight-contact device. The contact disk and shaft stay fixed. The removed-cover baseline shows all contacts; the two covered states show contacts 1 and 2, then 3 and 4.</desc><text id="demo-title" x="22" y="29" font-size="21" font-weight="bold" text-anchor="start" fill="#22333F" font-family="Arial">DEMO  /  Selective viewing</text><text id="baseline-title" x="123" y="81" font-size="17" font-weight="bold" text-anchor="middle" fill="#22333F" font-family="Arial">Whole-cover removal</text><text id="concept-title" x="479" y="81" font-size="17" font-weight="bold" text-anchor="middle" fill="#22333F" font-family="Arial">Rotating-cover concept</text><line id="baseline-underline" x1="24" y1="92" x2="222" y2="92" stroke="#CBD4D9" stroke-width="1" fill="none" /><line id="concept-underline" x1="263" y1="92" x2="704" y2="92" stroke="#CBD4D9" stroke-width="1" fill="none" /><text id="baseline-state" x="123" y="122" font-size="15.5" font-weight="normal" text-anchor="middle" fill="#22333F" font-family="Arial">Cover removed</text><text id="initial-state" x="360" y="122" font-size="15.5" font-weight="normal" text-anchor="middle" fill="#22333F" font-family="Arial">Initial</text><text id="rotated-state" x="596" y="122" font-size="15.5" font-weight="normal" text-anchor="middle" fill="#22333F" font-family="Arial">90° clockwise</text><circle id="baseline-disk-side" cx="123" cy="237" r="85" fill="#9CAAB1" stroke="none" stroke-width="1" data-entity="contact-disk" data-object-part="decoration" data-view="baseline" /><circle id="baseline-disk" cx="123" cy="232" r="85" fill="#E6EBED" stroke="#9CAAB1" stroke-width="1.2" data-view="baseline" data-entity="contact-disk" data-object-part="primary" /><circle id="baseline-contact-1" cx="146.25759" cy="175.85122" r="9.18" fill="#EDBD67" stroke="#866333" stroke-width="1" data-entity="contact-1" data-contact-id="1" data-angle-deg="22.5" data-view="baseline" data-visible="true" data-object-part="primary" /><text id="baseline-number-1" x="146.25759" y="180.85122" font-size="15" font-weight="bold" text-anchor="middle" fill="#22333F" font-family="Arial" data-entity="contact-1" data-view="baseline" data-object-part="decoration">1</text><circle id="baseline-contact-2" cx="179.14878" cy="208.74241" r="9.18" fill="#EDBD67" stroke="#866333" stroke-width="1" data-entity="contact-2" data-contact-id="2" data-angle-deg="67.5" data-view="baseline" data-visible="true" data-object-part="primary" /><text id="baseline-number-2" x="179.14878" y="213.74241" font-size="15" font-weight="bold" text-anchor="middle" fill="#22333F" font-family="Arial" data-entity="contact-2" data-view="baseline" data-object-part="decoration">2</text><circle id="baseline-contact-3" cx="179.14878" cy="255.25759" r="9.18" fill="#EDBD67" stroke="#866333" stroke-width="1" data-entity="contact-3" data-contact-id="3" data-angle-deg="112.5" data-view="baseline" data-visible="true" data-object-part="primary" /><text id="baseline-number-3" x="179.14878" y="260.25759" font-size="15" font-weight="bold" text-anchor="middle" fill="#22333F" font-family="Arial" data-entity="contact-3" data-view="baseline" data-object-part="decoration">3</text><circle id="baseline-contact-4" cx="146.25759" cy="288.14878" r="9.18" fill="#EDBD67" stroke="#866333" stroke-width="1" data-entity="contact-4" data-contact-id="4" data-angle-deg="157.5" data-view="baseline" data-visible="true" data-object-part="primary" /><text id="baseline-number-4" x="146.25759" y="293.14878" font-size="15" font-weight="bold" text-anchor="middle" fill="#22333F" font-family="Arial" data-entity="contact-4" data-view="baseline" data-object-part="decoration">4</text><circle id="baseline-contact-5" cx="99.74241" cy="288.14878" r="9.18" fill="#EDBD67" stroke="#866333" stroke-width="1" data-entity="contact-5" data-contact-id="5" data-angle-deg="202.5" data-view="baseline" data-visible="true" data-object-part="primary" /><text id="baseline-number-5" x="99.74241" y="293.14878" font-size="15" font-weight="bold" text-anchor="middle" fill="#22333F" font-family="Arial" data-entity="contact-5" data-view="baseline" data-object-part="decoration">5</text><circle id="baseline-contact-6" cx="66.85122" cy="255.25759" r="9.18" fill="#EDBD67" stroke="#866333" stroke-width="1" data-entity="contact-6" data-contact-id="6" data-angle-deg="247.5" data-view="baseline" data-visible="true" data-object-part="primary" /><text id="baseline-number-6" x="66.85122" y="260.25759" font-size="15" font-weight="bold" text-anchor="middle" fill="#22333F" font-family="Arial" data-entity="contact-6" data-view="baseline" data-object-part="decoration">6</text><circle id="baseline-contact-7" cx="66.85122" cy="208.74241" r="9.18" fill="#EDBD67" stroke="#866333" stroke-width="1" data-entity="contact-7" data-contact-id="7" data-angle-deg="292.5" data-view="baseline" data-visible="true" data-object-part="primary" /><text id="baseline-number-7" x="66.85122" y="213.74241" font-size="15" font-weight="bold" text-anchor="middle" fill="#22333F" font-family="Arial" data-entity="contact-7" data-view="baseline" data-object-part="decoration">7</text><circle id="baseline-contact-8" cx="99.74241" cy="175.85122" r="9.18" fill="#EDBD67" stroke="#866333" stroke-width="1" data-entity="contact-8" data-contact-id="8" data-angle-deg="337.5" data-view="baseline" data-visible="true" data-object-part="primary" /><text id="baseline-number-8" x="99.74241" y="180.85122" font-size="15" font-weight="bold" text-anchor="middle" fill="#22333F" font-family="Arial" data-entity="contact-8" data-view="baseline" data-object-part="decoration">8</text><circle id="baseline-shaft-side" cx="123" cy="234" r="19.974999999999998" fill="#9CAAB1" stroke="none" stroke-width="1" data-entity="shaft" data-object-part="decoration" data-view="baseline" /><circle id="baseline-shaft" cx="123" cy="232" r="19.974999999999998" fill="#CDD6DB" stroke="#9CAAB1" stroke-width="1.1" data-entity="shaft" data-object-part="primary" data-view="baseline" /><text id="baseline-fixed" x="123" y="236.2" font-size="13.5" font-weight="normal" text-anchor="middle" fill="#22333F" font-family="Arial" data-entity="shaft" data-object-part="decoration" data-view="baseline">fixed</text><circle id="initial-disk-side" cx="360" cy="237" r="85" fill="#9CAAB1" stroke="none" stroke-width="1" data-entity="contact-disk" data-object-part="decoration" data-view="initial" /><circle id="initial-disk" cx="360" cy="232" r="85" fill="#E6EBED" stroke="#9CAAB1" stroke-width="1.2" data-view="initial" data-entity="contact-disk" data-object-part="detail" /><circle id="initial-contact-1" cx="383.25759" cy="175.85122" r="9.18" fill="#EDBD67" stroke="#866333" stroke-width="1" data-entity="contact-1" data-contact-id="1" data-angle-deg="22.5" data-view="initial" data-visible="true" data-object-part="detail" /><text id="initial-number-1" x="383.25759" y="180.85122" font-size="15" font-weight="bold" text-anchor="middle" fill="#22333F" font-family="Arial" data-entity="contact-1" data-view="initial" data-object-part="decoration">1</text><circle id="initial-contact-2" cx="416.14878" cy="208.74241" r="9.18" fill="#EDBD67" stroke="#866333" stroke-width="1" data-entity="contact-2" data-contact-id="2" data-angle-deg="67.5" data-view="initial" data-visible="true" data-object-part="detail" /><text id="initial-number-2" x="416.14878" y="213.74241" font-size="15" font-weight="bold" text-anchor="middle" fill="#22333F" font-family="Arial" data-entity="contact-2" data-view="initial" data-object-part="decoration">2</text><circle id="initial-contact-3" cx="416.14878" cy="255.25759" r="9.18" fill="#EDBD67" stroke="#866333" stroke-width="1" data-entity="contact-3" data-contact-id="3" data-angle-deg="112.5" data-view="initial" data-visible="false" data-object-part="detail" /><text id="initial-number-3" x="416.14878" y="260.25759" font-size="15" font-weight="bold" text-anchor="middle" fill="#22333F" font-family="Arial" data-entity="contact-3" data-view="initial" data-object-part="decoration">3</text><circle id="initial-contact-4" cx="383.25759" cy="288.14878" r="9.18" fill="#EDBD67" stroke="#866333" stroke-width="1" data-entity="contact-4" data-contact-id="4" data-angle-deg="157.5" data-view="initial" data-visible="false" data-object-part="detail" /><text id="initial-number-4" x="383.25759" y="293.14878" font-size="15" font-weight="bold" text-anchor="middle" fill="#22333F" font-family="Arial" data-entity="contact-4" data-view="initial" data-object-part="decoration">4</text><circle id="initial-contact-5" cx="336.74241" cy="288.14878" r="9.18" fill="#EDBD67" stroke="#866333" stroke-width="1" data-entity="contact-5" data-contact-id="5" data-angle-deg="202.5" data-view="initial" data-visible="false" data-object-part="detail" /><text id="initial-number-5" x="336.74241" y="293.14878" font-size="15" font-weight="bold" text-anchor="middle" fill="#22333F" font-family="Arial" data-entity="contact-5" data-view="initial" data-object-part="decoration">5</text><circle id="initial-contact-6" cx="303.85122" cy="255.25759" r="9.18" fill="#EDBD67" stroke="#866333" stroke-width="1" data-entity="contact-6" data-contact-id="6" data-angle-deg="247.5" data-view="initial" data-visible="false" data-object-part="detail" /><text id="initial-number-6" x="303.85122" y="260.25759" font-size="15" font-weight="bold" text-anchor="middle" fill="#22333F" font-family="Arial" data-entity="contact-6" data-view="initial" data-object-part="decoration">6</text><circle id="initial-contact-7" cx="303.85122" cy="208.74241" r="9.18" fill="#EDBD67" stroke="#866333" stroke-width="1" data-entity="contact-7" data-contact-id="7" data-angle-deg="292.5" data-view="initial" data-visible="false" data-object-part="detail" /><text id="initial-number-7" x="303.85122" y="213.74241" font-size="15" font-weight="bold" text-anchor="middle" fill="#22333F" font-family="Arial" data-entity="contact-7" data-view="initial" data-object-part="decoration">7</text><circle id="initial-contact-8" cx="336.74241" cy="175.85122" r="9.18" fill="#EDBD67" stroke="#866333" stroke-width="1" data-entity="contact-8" data-contact-id="8" data-angle-deg="337.5" data-view="initial" data-visible="false" data-object-part="detail" /><text id="initial-number-8" x="336.74241" y="180.85122" font-size="15" font-weight="bold" text-anchor="middle" fill="#22333F" font-family="Arial" data-entity="contact-8" data-view="initial" data-object-part="decoration">8</text><path id="initial-cover-side" fill="#233E4D" stroke="none" stroke-width="1" data-entity="cover" data-object-part="decoration" data-view="initial" d="M 442.79 235 L 442.777 236.445 L 442.74 237.889 L 442.677 239.333 L 442.588 240.775 L 442.475 242.216 L 442.336 243.654 L 442.173 245.09 L 441.984 246.522 L 441.771 247.951 L 441.532 249.376 L 441.269 250.797 L 440.981 252.213 L 440.668 253.624 L 440.331 255.029 L 439.969 256.428 L 439.583 257.82 L 439.172 259.205 L 438.738 260.584 L 438.279 261.954 L 437.797 263.316 L 437.291 264.669 L 436.762 266.014 L 436.209 267.349 L 435.632 268.674 L 435.033 269.989 L 434.411 271.293 L 433.766 272.586 L 433.099 273.868 L 432.41 275.137 L 431.698 276.395 L 430.965 277.64 L 430.21 278.872 L 429.434 280.091 L 428.636 281.296 L 427.818 282.486 L 426.979 283.663 L 426.119 284.824 L 425.239 285.971 L 424.34 287.101 L 423.421 288.216 L 422.482 289.315 L 421.525 290.397 L 420.549 291.463 L 419.554 292.511 L 418.541 293.541 L 417.511 294.554 L 416.463 295.549 L 415.397 296.525 L 414.315 297.482 L 413.216 298.421 L 412.101 299.34 L 410.971 300.239 L 409.824 301.119 L 408.663 301.979 L 407.486 302.818 L 406.296 303.636 L 405.091 304.434 L 403.872 305.21 L 402.64 305.965 L 401.395 306.698 L 400.137 307.41 L 398.868 308.099 L 397.586 308.766 L 396.293 309.411 L 394.989 310.033 L 393.674 310.632 L 392.349 311.209 L 391.014 311.762 L 389.669 312.291 L 388.316 312.797 L 386.954 313.279 L 385.584 313.738 L 384.205 314.172 L 382.82 314.583 L 381.428 314.969 L 380.029 315.331 L 378.624 315.668 L 377.213 315.981 L 375.797 316.269 L 374.376 316.532 L 372.951 316.771 L 371.522 316.984 L 370.09 317.173 L 368.654 317.336 L 367.216 317.475 L 365.775 317.588 L 364.333 317.677 L 362.889 317.74 L 361.445 317.777 L 360 317.79 L 358.555 317.777 L 357.111 317.74 L 355.667 317.677 L 354.225 317.588 L 352.784 317.475 L 351.346 317.336 L 349.91 317.173 L 348.478 316.984 L 347.049 316.771 L 345.624 316.532 L 344.203 316.269 L 342.787 315.981 L 341.376 315.668 L 339.971 315.331 L 338.572 314.969 L 337.18 314.583 L 335.795 314.172 L 334.416 313.738 L 333.046 313.279 L 331.684 312.797 L 330.331 312.291 L 328.986 311.762 L 327.651 311.209 L 326.326 310.632 L 325.011 310.033 L 323.707 309.411 L 322.414 308.766 L 321.132 308.099 L 319.863 307.41 L 318.605 306.698 L 317.36 305.965 L 316.128 305.21 L 314.909 304.434 L 313.704 303.636 L 312.514 302.818 L 311.337 301.979 L 310.176 301.119 L 309.029 300.239 L 307.899 299.34 L 306.784 298.421 L 305.685 297.482 L 304.603 296.525 L 303.537 295.549 L 302.489 294.554 L 301.459 293.541 L 300.446 292.511 L 299.451 291.463 L 298.475 290.397 L 297.518 289.315 L 296.579 288.216 L 295.66 287.101 L 294.761 285.971 L 293.881 284.824 L 293.021 283.663 L 292.182 282.486 L 291.364 281.296 L 290.566 280.091 L 289.79 278.872 L 289.035 277.64 L 288.302 276.395 L 287.59 275.137 L 286.901 273.868 L 286.234 272.586 L 285.589 271.293 L 284.967 269.989 L 284.368 268.674 L 283.791 267.349 L 283.238 266.014 L 282.709 264.669 L 282.203 263.316 L 281.721 261.954 L 281.262 260.584 L 280.828 259.205 L 280.417 257.82 L 280.031 256.428 L 279.669 255.029 L 279.332 253.624 L 279.019 252.213 L 278.731 250.797 L 278.468 249.376 L 278.229 247.951 L 278.016 246.522 L 277.827 245.09 L 277.664 243.654 L 277.525 242.216 L 277.412 240.775 L 277.323 239.333 L 277.26 237.889 L 277.223 236.445 L 277.21 235 L 277.223 233.555 L 277.26 232.111 L 277.323 230.667 L 277.412 229.225 L 277.525 227.784 L 277.664 226.346 L 277.827 224.91 L 278.016 223.478 L 278.229 222.049 L 278.468 220.624 L 278.731 219.203 L 279.019 217.787 L 279.332 216.376 L 279.669 214.971 L 280.031 213.572 L 280.417 212.18 L 280.828 210.795 L 281.262 209.416 L 281.721 208.046 L 282.203 206.684 L 282.709 205.331 L 283.238 203.986 L 283.791 202.651 L 284.368 201.326 L 284.967 200.011 L 285.589 198.707 L 286.234 197.414 L 286.901 196.132 L 287.59 194.863 L 288.302 193.605 L 289.035 192.36 L 289.79 191.128 L 290.566 189.909 L 291.364 188.704 L 292.182 187.514 L 293.021 186.337 L 293.881 185.176 L 294.761 184.029 L 295.66 182.899 L 296.579 181.784 L 297.518 180.685 L 298.475 179.603 L 299.451 178.537 L 300.446 177.489 L 301.459 176.459 L 302.489 175.446 L 303.537 174.451 L 304.603 173.475 L 305.685 172.518 L 306.784 171.579 L 307.899 170.66 L 309.029 169.761 L 310.176 168.881 L 311.337 168.021 L 312.514 167.182 L 313.704 166.364 L 314.909 165.566 L 316.128 164.79 L 317.36 164.035 L 318.605 163.302 L 319.863 162.59 L 321.132 161.901 L 322.414 161.234 L 323.707 160.589 L 325.011 159.967 L 326.326 159.368 L 327.651 158.791 L 328.986 158.238 L 330.331 157.709 L 331.684 157.203 L 333.046 156.721 L 334.416 156.262 L 335.795 155.828 L 337.18 155.417 L 338.572 155.031 L 339.971 154.669 L 341.376 154.332 L 342.787 154.019 L 344.203 153.731 L 345.624 153.468 L 347.049 153.229 L 348.478 153.016 L 349.91 152.827 L 351.346 152.664 L 352.784 152.525 L 354.225 152.412 L 355.667 152.323 L 357.111 152.26 L 358.555 152.223 L 360 152.21 L 360 207.8 L 359.525 207.804 L 359.051 207.817 L 358.576 207.837 L 358.103 207.866 L 357.629 207.904 L 357.157 207.949 L 356.685 208.003 L 356.214 208.065 L 355.745 208.135 L 355.277 208.213 L 354.81 208.3 L 354.345 208.394 L 353.881 208.497 L 353.42 208.608 L 352.96 208.727 L 352.503 208.854 L 352.047 208.989 L 351.595 209.131 L 351.145 209.282 L 350.697 209.44 L 350.252 209.607 L 349.811 209.781 L 349.372 209.962 L 348.937 210.152 L 348.505 210.348 L 348.076 210.553 L 347.651 210.765 L 347.23 210.984 L 346.813 211.21 L 346.4 211.444 L 345.991 211.685 L 345.586 211.933 L 345.186 212.188 L 344.79 212.45 L 344.399 212.719 L 344.012 212.995 L 343.631 213.277 L 343.254 213.566 L 342.882 213.862 L 342.516 214.164 L 342.155 214.472 L 341.8 214.786 L 341.45 215.107 L 341.105 215.434 L 340.767 215.767 L 340.434 216.105 L 340.107 216.45 L 339.786 216.8 L 339.472 217.155 L 339.164 217.516 L 338.862 217.882 L 338.566 218.254 L 338.277 218.631 L 337.995 219.012 L 337.719 219.399 L 337.45 219.79 L 337.188 220.186 L 336.933 220.586 L 336.685 220.991 L 336.444 221.4 L 336.21 221.813 L 335.984 222.23 L 335.765 222.651 L 335.553 223.076 L 335.348 223.505 L 335.152 223.937 L 334.962 224.372 L 334.781 224.811 L 334.607 225.252 L 334.44 225.697 L 334.282 226.145 L 334.131 226.595 L 333.989 227.047 L 333.854 227.503 L 333.727 227.96 L 333.608 228.42 L 333.497 228.881 L 333.394 229.345 L 333.3 229.81 L 333.213 230.277 L 333.135 230.745 L 333.065 231.214 L 333.003 231.685 L 332.949 232.157 L 332.904 232.629 L 332.866 233.103 L 332.837 233.576 L 332.817 234.051 L 332.804 234.525 L 332.8 235 L 332.804 235.475 L 332.817 235.949 L 332.837 236.424 L 332.866 236.897 L 332.904 237.371 L 332.949 237.843 L 333.003 238.315 L 333.065 238.786 L 333.135 239.255 L 333.213 239.723 L 333.3 240.19 L 333.394 240.655 L 333.497 241.119 L 333.608 241.58 L 333.727 242.04 L 333.854 242.497 L 333.989 242.953 L 334.131 243.405 L 334.282 243.855 L 334.44 244.303 L 334.607 244.748 L 334.781 245.189 L 334.962 245.628 L 335.152 246.063 L 335.348 246.495 L 335.553 246.924 L 335.765 247.349 L 335.984 247.77 L 336.21 248.187 L 336.444 248.6 L 336.685 249.009 L 336.933 249.414 L 337.188 249.814 L 337.45 250.21 L 337.719 250.601 L 337.995 250.988 L 338.277 251.369 L 338.566 251.746 L 338.862 252.118 L 339.164 252.484 L 339.472 252.845 L 339.786 253.2 L 340.107 253.55 L 340.434 253.895 L 340.767 254.233 L 341.105 254.566 L 341.45 254.893 L 341.8 255.214 L 342.155 255.528 L 342.516 255.836 L 342.882 256.138 L 343.254 256.434 L 343.631 256.723 L 344.012 257.005 L 344.399 257.281 L 344.79 257.55 L 345.186 257.812 L 345.586 258.067 L 345.991 258.315 L 346.4 258.556 L 346.813 258.79 L 347.23 259.016 L 347.651 259.235 L 348.076 259.447 L 348.505 259.652 L 348.937 259.848 L 349.372 260.038 L 349.811 260.219 L 350.252 260.393 L 350.697 260.56 L 351.145 260.718 L 351.595 260.869 L 352.047 261.011 L 352.503 261.146 L 352.96 261.273 L 353.42 261.392 L 353.881 261.503 L 354.345 261.606 L 354.81 261.7 L 355.277 261.787 L 355.745 261.865 L 356.214 261.935 L 356.685 261.997 L 357.157 262.051 L 357.629 262.096 L 358.103 262.134 L 358.576 262.163 L 359.051 262.183 L 359.525 262.196 L 360 262.2 L 360.475 262.196 L 360.949 262.183 L 361.424 262.163 L 361.897 262.134 L 362.371 262.096 L 362.843 262.051 L 363.315 261.997 L 363.786 261.935 L 364.255 261.865 L 364.723 261.787 L 365.19 261.7 L 365.655 261.606 L 366.119 261.503 L 366.58 261.392 L 367.04 261.273 L 367.497 261.146 L 367.953 261.011 L 368.405 260.869 L 368.855 260.718 L 369.303 260.56 L 369.748 260.393 L 370.189 260.219 L 370.628 260.038 L 371.063 259.848 L 371.495 259.652 L 371.924 259.447 L 372.349 259.235 L 372.77 259.016 L 373.187 258.79 L 373.6 258.556 L 374.009 258.315 L 374.414 258.067 L 374.814 257.812 L 375.21 257.55 L 375.601 257.281 L 375.988 257.005 L 376.369 256.723 L 376.746 256.434 L 377.118 256.138 L 377.484 255.836 L 377.845 255.528 L 378.2 255.214 L 378.55 254.893 L 378.895 254.566 L 379.233 254.233 L 379.566 253.895 L 379.893 253.55 L 380.214 253.2 L 380.528 252.845 L 380.836 252.484 L 381.138 252.118 L 381.434 251.746 L 381.723 251.369 L 382.005 250.988 L 382.281 250.601 L 382.55 250.21 L 382.812 249.814 L 383.067 249.414 L 383.315 249.009 L 383.556 248.6 L 383.79 248.187 L 384.016 247.77 L 384.235 247.349 L 384.447 246.924 L 384.652 246.495 L 384.848 246.063 L 385.038 245.628 L 385.219 245.189 L 385.393 244.748 L 385.56 244.303 L 385.718 243.855 L 385.869 243.405 L 386.011 242.953 L 386.146 242.497 L 386.273 242.04 L 386.392 241.58 L 386.503 241.119 L 386.606 240.655 L 386.7 240.19 L 386.787 239.723 L 386.865 239.255 L 386.935 238.786 L 386.997 238.315 L 387.051 237.843 L 387.096 237.371 L 387.134 236.897 L 387.163 236.424 L 387.183 235.949 L 387.196 235.475 L 387.2 235 Z" /><path id="initial-cover" fill="#315569" stroke="#233E4D" stroke-width="1.1" data-entity="cover" data-object-part="primary" data-view="initial" data-opening-start-deg="0" data-opening-span-deg="90" d="M 442.79 232 L 442.777 233.445 L 442.74 234.889 L 442.677 236.333 L 442.588 237.775 L 442.475 239.216 L 442.336 240.654 L 442.173 242.09 L 441.984 243.522 L 441.771 244.951 L 441.532 246.376 L 441.269 247.797 L 440.981 249.213 L 440.668 250.624 L 440.331 252.029 L 439.969 253.428 L 439.583 254.82 L 439.172 256.205 L 438.738 257.584 L 438.279 258.954 L 437.797 260.316 L 437.291 261.669 L 436.762 263.014 L 436.209 264.349 L 435.632 265.674 L 435.033 266.989 L 434.411 268.293 L 433.766 269.586 L 433.099 270.868 L 432.41 272.137 L 431.698 273.395 L 430.965 274.64 L 430.21 275.872 L 429.434 277.091 L 428.636 278.296 L 427.818 279.486 L 426.979 280.663 L 426.119 281.824 L 425.239 282.971 L 424.34 284.101 L 423.421 285.216 L 422.482 286.315 L 421.525 287.397 L 420.549 288.463 L 419.554 289.511 L 418.541 290.541 L 417.511 291.554 L 416.463 292.549 L 415.397 293.525 L 414.315 294.482 L 413.216 295.421 L 412.101 296.34 L 410.971 297.239 L 409.824 298.119 L 408.663 298.979 L 407.486 299.818 L 406.296 300.636 L 405.091 301.434 L 403.872 302.21 L 402.64 302.965 L 401.395 303.698 L 400.137 304.41 L 398.868 305.099 L 397.586 305.766 L 396.293 306.411 L 394.989 307.033 L 393.674 307.632 L 392.349 308.209 L 391.014 308.762 L 389.669 309.291 L 388.316 309.797 L 386.954 310.279 L 385.584 310.738 L 384.205 311.172 L 382.82 311.583 L 381.428 311.969 L 380.029 312.331 L 378.624 312.668 L 377.213 312.981 L 375.797 313.269 L 374.376 313.532 L 372.951 313.771 L 371.522 313.984 L 370.09 314.173 L 368.654 314.336 L 367.216 314.475 L 365.775 314.588 L 364.333 314.677 L 362.889 314.74 L 361.445 314.777 L 360 314.79 L 358.555 314.777 L 357.111 314.74 L 355.667 314.677 L 354.225 314.588 L 352.784 314.475 L 351.346 314.336 L 349.91 314.173 L 348.478 313.984 L 347.049 313.771 L 345.624 313.532 L 344.203 313.269 L 342.787 312.981 L 341.376 312.668 L 339.971 312.331 L 338.572 311.969 L 337.18 311.583 L 335.795 311.172 L 334.416 310.738 L 333.046 310.279 L 331.684 309.797 L 330.331 309.291 L 328.986 308.762 L 327.651 308.209 L 326.326 307.632 L 325.011 307.033 L 323.707 306.411 L 322.414 305.766 L 321.132 305.099 L 319.863 304.41 L 318.605 303.698 L 317.36 302.965 L 316.128 302.21 L 314.909 301.434 L 313.704 300.636 L 312.514 299.818 L 311.337 298.979 L 310.176 298.119 L 309.029 297.239 L 307.899 296.34 L 306.784 295.421 L 305.685 294.482 L 304.603 293.525 L 303.537 292.549 L 302.489 291.554 L 301.459 290.541 L 300.446 289.511 L 299.451 288.463 L 298.475 287.397 L 297.518 286.315 L 296.579 285.216 L 295.66 284.101 L 294.761 282.971 L 293.881 281.824 L 293.021 280.663 L 292.182 279.486 L 291.364 278.296 L 290.566 277.091 L 289.79 275.872 L 289.035 274.64 L 288.302 273.395 L 287.59 272.137 L 286.901 270.868 L 286.234 269.586 L 285.589 268.293 L 284.967 266.989 L 284.368 265.674 L 283.791 264.349 L 283.238 263.014 L 282.709 261.669 L 282.203 260.316 L 281.721 258.954 L 281.262 257.584 L 280.828 256.205 L 280.417 254.82 L 280.031 253.428 L 279.669 252.029 L 279.332 250.624 L 279.019 249.213 L 278.731 247.797 L 278.468 246.376 L 278.229 244.951 L 278.016 243.522 L 277.827 242.09 L 277.664 240.654 L 277.525 239.216 L 277.412 237.775 L 277.323 236.333 L 277.26 234.889 L 277.223 233.445 L 277.21 232 L 277.223 230.555 L 277.26 229.111 L 277.323 227.667 L 277.412 226.225 L 277.525 224.784 L 277.664 223.346 L 277.827 221.91 L 278.016 220.478 L 278.229 219.049 L 278.468 217.624 L 278.731 216.203 L 279.019 214.787 L 279.332 213.376 L 279.669 211.971 L 280.031 210.572 L 280.417 209.18 L 280.828 207.795 L 281.262 206.416 L 281.721 205.046 L 282.203 203.684 L 282.709 202.331 L 283.238 200.986 L 283.791 199.651 L 284.368 198.326 L 284.967 197.011 L 285.589 195.707 L 286.234 194.414 L 286.901 193.132 L 287.59 191.863 L 288.302 190.605 L 289.035 189.36 L 289.79 188.128 L 290.566 186.909 L 291.364 185.704 L 292.182 184.514 L 293.021 183.337 L 293.881 182.176 L 294.761 181.029 L 295.66 179.899 L 296.579 178.784 L 297.518 177.685 L 298.475 176.603 L 299.451 175.537 L 300.446 174.489 L 301.459 173.459 L 302.489 172.446 L 303.537 171.451 L 304.603 170.475 L 305.685 169.518 L 306.784 168.579 L 307.899 167.66 L 309.029 166.761 L 310.176 165.881 L 311.337 165.021 L 312.514 164.182 L 313.704 163.364 L 314.909 162.566 L 316.128 161.79 L 317.36 161.035 L 318.605 160.302 L 319.863 159.59 L 321.132 158.901 L 322.414 158.234 L 323.707 157.589 L 325.011 156.967 L 326.326 156.368 L 327.651 155.791 L 328.986 155.238 L 330.331 154.709 L 331.684 154.203 L 333.046 153.721 L 334.416 153.262 L 335.795 152.828 L 337.18 152.417 L 338.572 152.031 L 339.971 151.669 L 341.376 151.332 L 342.787 151.019 L 344.203 150.731 L 345.624 150.468 L 347.049 150.229 L 348.478 150.016 L 349.91 149.827 L 351.346 149.664 L 352.784 149.525 L 354.225 149.412 L 355.667 149.323 L 357.111 149.26 L 358.555 149.223 L 360 149.21 L 360 204.8 L 359.525 204.804 L 359.051 204.817 L 358.576 204.837 L 358.103 204.866 L 357.629 204.904 L 357.157 204.949 L 356.685 205.003 L 356.214 205.065 L 355.745 205.135 L 355.277 205.213 L 354.81 205.3 L 354.345 205.394 L 353.881 205.497 L 353.42 205.608 L 352.96 205.727 L 352.503 205.854 L 352.047 205.989 L 351.595 206.131 L 351.145 206.282 L 350.697 206.44 L 350.252 206.607 L 349.811 206.781 L 349.372 206.962 L 348.937 207.152 L 348.505 207.348 L 348.076 207.553 L 347.651 207.765 L 347.23 207.984 L 346.813 208.21 L 346.4 208.444 L 345.991 208.685 L 345.586 208.933 L 345.186 209.188 L 344.79 209.45 L 344.399 209.719 L 344.012 209.995 L 343.631 210.277 L 343.254 210.566 L 342.882 210.862 L 342.516 211.164 L 342.155 211.472 L 341.8 211.786 L 341.45 212.107 L 341.105 212.434 L 340.767 212.767 L 340.434 213.105 L 340.107 213.45 L 339.786 213.8 L 339.472 214.155 L 339.164 214.516 L 338.862 214.882 L 338.566 215.254 L 338.277 215.631 L 337.995 216.012 L 337.719 216.399 L 337.45 216.79 L 337.188 217.186 L 336.933 217.586 L 336.685 217.991 L 336.444 218.4 L 336.21 218.813 L 335.984 219.23 L 335.765 219.651 L 335.553 220.076 L 335.348 220.505 L 335.152 220.937 L 334.962 221.372 L 334.781 221.811 L 334.607 222.252 L 334.44 222.697 L 334.282 223.145 L 334.131 223.595 L 333.989 224.047 L 333.854 224.503 L 333.727 224.96 L 333.608 225.42 L 333.497 225.881 L 333.394 226.345 L 333.3 226.81 L 333.213 227.277 L 333.135 227.745 L 333.065 228.214 L 333.003 228.685 L 332.949 229.157 L 332.904 229.629 L 332.866 230.103 L 332.837 230.576 L 332.817 231.051 L 332.804 231.525 L 332.8 232 L 332.804 232.475 L 332.817 232.949 L 332.837 233.424 L 332.866 233.897 L 332.904 234.371 L 332.949 234.843 L 333.003 235.315 L 333.065 235.786 L 333.135 236.255 L 333.213 236.723 L 333.3 237.19 L 333.394 237.655 L 333.497 238.119 L 333.608 238.58 L 333.727 239.04 L 333.854 239.497 L 333.989 239.953 L 334.131 240.405 L 334.282 240.855 L 334.44 241.303 L 334.607 241.748 L 334.781 242.189 L 334.962 242.628 L 335.152 243.063 L 335.348 243.495 L 335.553 243.924 L 335.765 244.349 L 335.984 244.77 L 336.21 245.187 L 336.444 245.6 L 336.685 246.009 L 336.933 246.414 L 337.188 246.814 L 337.45 247.21 L 337.719 247.601 L 337.995 247.988 L 338.277 248.369 L 338.566 248.746 L 338.862 249.118 L 339.164 249.484 L 339.472 249.845 L 339.786 250.2 L 340.107 250.55 L 340.434 250.895 L 340.767 251.233 L 341.105 251.566 L 341.45 251.893 L 341.8 252.214 L 342.155 252.528 L 342.516 252.836 L 342.882 253.138 L 343.254 253.434 L 343.631 253.723 L 344.012 254.005 L 344.399 254.281 L 344.79 254.55 L 345.186 254.812 L 345.586 255.067 L 345.991 255.315 L 346.4 255.556 L 346.813 255.79 L 347.23 256.016 L 347.651 256.235 L 348.076 256.447 L 348.505 256.652 L 348.937 256.848 L 349.372 257.038 L 349.811 257.219 L 350.252 257.393 L 350.697 257.56 L 351.145 257.718 L 351.595 257.869 L 352.047 258.011 L 352.503 258.146 L 352.96 258.273 L 353.42 258.392 L 353.881 258.503 L 354.345 258.606 L 354.81 258.7 L 355.277 258.787 L 355.745 258.865 L 356.214 258.935 L 356.685 258.997 L 357.157 259.051 L 357.629 259.096 L 358.103 259.134 L 358.576 259.163 L 359.051 259.183 L 359.525 259.196 L 360 259.2 L 360.475 259.196 L 360.949 259.183 L 361.424 259.163 L 361.897 259.134 L 362.371 259.096 L 362.843 259.051 L 363.315 258.997 L 363.786 258.935 L 364.255 258.865 L 364.723 258.787 L 365.19 258.7 L 365.655 258.606 L 366.119 258.503 L 366.58 258.392 L 367.04 258.273 L 367.497 258.146 L 367.953 258.011 L 368.405 257.869 L 368.855 257.718 L 369.303 257.56 L 369.748 257.393 L 370.189 257.219 L 370.628 257.038 L 371.063 256.848 L 371.495 256.652 L 371.924 256.447 L 372.349 256.235 L 372.77 256.016 L 373.187 255.79 L 373.6 255.556 L 374.009 255.315 L 374.414 255.067 L 374.814 254.812 L 375.21 254.55 L 375.601 254.281 L 375.988 254.005 L 376.369 253.723 L 376.746 253.434 L 377.118 253.138 L 377.484 252.836 L 377.845 252.528 L 378.2 252.214 L 378.55 251.893 L 378.895 251.566 L 379.233 251.233 L 379.566 250.895 L 379.893 250.55 L 380.214 250.2 L 380.528 249.845 L 380.836 249.484 L 381.138 249.118 L 381.434 248.746 L 381.723 248.369 L 382.005 247.988 L 382.281 247.601 L 382.55 247.21 L 382.812 246.814 L 383.067 246.414 L 383.315 246.009 L 383.556 245.6 L 383.79 245.187 L 384.016 244.77 L 384.235 244.349 L 384.447 243.924 L 384.652 243.495 L 384.848 243.063 L 385.038 242.628 L 385.219 242.189 L 385.393 241.748 L 385.56 241.303 L 385.718 240.855 L 385.869 240.405 L 386.011 239.953 L 386.146 239.497 L 386.273 239.04 L 386.392 238.58 L 386.503 238.119 L 386.606 237.655 L 386.7 237.19 L 386.787 236.723 L 386.865 236.255 L 386.935 235.786 L 386.997 235.315 L 387.051 234.843 L 387.096 234.371 L 387.134 233.897 L 387.163 233.424 L 387.183 232.949 L 387.196 232.475 L 387.2 232 Z" /><circle id="initial-shaft-side" cx="360" cy="234" r="19.974999999999998" fill="#9CAAB1" stroke="none" stroke-width="1" data-entity="shaft" data-object-part="decoration" data-view="initial" /><circle id="initial-shaft" cx="360" cy="232" r="19.974999999999998" fill="#CDD6DB" stroke="#9CAAB1" stroke-width="1.1" data-entity="shaft" data-object-part="detail" data-view="initial" /><text id="initial-fixed" x="360" y="236.2" font-size="13.5" font-weight="normal" text-anchor="middle" fill="#22333F" font-family="Arial" data-entity="shaft" data-object-part="decoration" data-view="initial">fixed</text><circle id="rotated-disk-side" cx="596" cy="237" r="85" fill="#9CAAB1" stroke="none" stroke-width="1" data-entity="contact-disk" data-object-part="decoration" data-view="rotated" /><circle id="rotated-disk" cx="596" cy="232" r="85" fill="#E6EBED" stroke="#9CAAB1" stroke-width="1.2" data-view="rotated" data-entity="contact-disk" data-object-part="detail" /><circle id="rotated-contact-1" cx="619.25759" cy="175.85122" r="9.18" fill="#EDBD67" stroke="#866333" stroke-width="1" data-entity="contact-1" data-contact-id="1" data-angle-deg="22.5" data-view="rotated" data-visible="false" data-object-part="detail" /><text id="rotated-number-1" x="619.25759" y="180.85122" font-size="15" font-weight="bold" text-anchor="middle" fill="#22333F" font-family="Arial" data-entity="contact-1" data-view="rotated" data-object-part="decoration">1</text><circle id="rotated-contact-2" cx="652.14878" cy="208.74241" r="9.18" fill="#EDBD67" stroke="#866333" stroke-width="1" data-entity="contact-2" data-contact-id="2" data-angle-deg="67.5" data-view="rotated" data-visible="false" data-object-part="detail" /><text id="rotated-number-2" x="652.14878" y="213.74241" font-size="15" font-weight="bold" text-anchor="middle" fill="#22333F" font-family="Arial" data-entity="contact-2" data-view="rotated" data-object-part="decoration">2</text><circle id="rotated-contact-3" cx="652.14878" cy="255.25759" r="9.18" fill="#EDBD67" stroke="#866333" stroke-width="1" data-entity="contact-3" data-contact-id="3" data-angle-deg="112.5" data-view="rotated" data-visible="true" data-object-part="detail" /><text id="rotated-number-3" x="652.14878" y="260.25759" font-size="15" font-weight="bold" text-anchor="middle" fill="#22333F" font-family="Arial" data-entity="contact-3" data-view="rotated" data-object-part="decoration">3</text><circle id="rotated-contact-4" cx="619.25759" cy="288.14878" r="9.18" fill="#EDBD67" stroke="#866333" stroke-width="1" data-entity="contact-4" data-contact-id="4" data-angle-deg="157.5" data-view="rotated" data-visible="true" data-object-part="detail" /><text id="rotated-number-4" x="619.25759" y="293.14878" font-size="15" font-weight="bold" text-anchor="middle" fill="#22333F" font-family="Arial" data-entity="contact-4" data-view="rotated" data-object-part="decoration">4</text><circle id="rotated-contact-5" cx="572.74241" cy="288.14878" r="9.18" fill="#EDBD67" stroke="#866333" stroke-width="1" data-entity="contact-5" data-contact-id="5" data-angle-deg="202.5" data-view="rotated" data-visible="false" data-object-part="detail" /><text id="rotated-number-5" x="572.74241" y="293.14878" font-size="15" font-weight="bold" text-anchor="middle" fill="#22333F" font-family="Arial" data-entity="contact-5" data-view="rotated" data-object-part="decoration">5</text><circle id="rotated-contact-6" cx="539.85122" cy="255.25759" r="9.18" fill="#EDBD67" stroke="#866333" stroke-width="1" data-entity="contact-6" data-contact-id="6" data-angle-deg="247.5" data-view="rotated" data-visible="false" data-object-part="detail" /><text id="rotated-number-6" x="539.85122" y="260.25759" font-size="15" font-weight="bold" text-anchor="middle" fill="#22333F" font-family="Arial" data-entity="contact-6" data-view="rotated" data-object-part="decoration">6</text><circle id="rotated-contact-7" cx="539.85122" cy="208.74241" r="9.18" fill="#EDBD67" stroke="#866333" stroke-width="1" data-entity="contact-7" data-contact-id="7" data-angle-deg="292.5" data-view="rotated" data-visible="false" data-object-part="detail" /><text id="rotated-number-7" x="539.85122" y="213.74241" font-size="15" font-weight="bold" text-anchor="middle" fill="#22333F" font-family="Arial" data-entity="contact-7" data-view="rotated" data-object-part="decoration">7</text><circle id="rotated-contact-8" cx="572.74241" cy="175.85122" r="9.18" fill="#EDBD67" stroke="#866333" stroke-width="1" data-entity="contact-8" data-contact-id="8" data-angle-deg="337.5" data-view="rotated" data-visible="false" data-object-part="detail" /><text id="rotated-number-8" x="572.74241" y="180.85122" font-size="15" font-weight="bold" text-anchor="middle" fill="#22333F" font-family="Arial" data-entity="contact-8" data-view="rotated" data-object-part="decoration">8</text><path id="rotated-cover-side" fill="#233E4D" stroke="none" stroke-width="1" data-entity="cover" data-object-part="decoration" data-view="rotated" d="M 596 317.79 L 594.555 317.777 L 593.111 317.74 L 591.667 317.677 L 590.225 317.588 L 588.784 317.475 L 587.346 317.336 L 585.91 317.173 L 584.478 316.984 L 583.049 316.771 L 581.624 316.532 L 580.203 316.269 L 578.787 315.981 L 577.376 315.668 L 575.971 315.331 L 574.572 314.969 L 573.18 314.583 L 571.795 314.172 L 570.416 313.738 L 569.046 313.279 L 567.684 312.797 L 566.331 312.291 L 564.986 311.762 L 563.651 311.209 L 562.326 310.632 L 561.011 310.033 L 559.707 309.411 L 558.414 308.766 L 557.132 308.099 L 555.863 307.41 L 554.605 306.698 L 553.36 305.965 L 552.128 305.21 L 550.909 304.434 L 549.704 303.636 L 548.514 302.818 L 547.337 301.979 L 546.176 301.119 L 545.029 300.239 L 543.899 299.34 L 542.784 298.421 L 541.685 297.482 L 540.603 296.525 L 539.537 295.549 L 538.489 294.554 L 537.459 293.541 L 536.446 292.511 L 535.451 291.463 L 534.475 290.397 L 533.518 289.315 L 532.579 288.216 L 531.66 287.101 L 530.761 285.971 L 529.881 284.824 L 529.021 283.663 L 528.182 282.486 L 527.364 281.296 L 526.566 280.091 L 525.79 278.872 L 525.035 277.64 L 524.302 276.395 L 523.59 275.137 L 522.901 273.868 L 522.234 272.586 L 521.589 271.293 L 520.967 269.989 L 520.368 268.674 L 519.791 267.349 L 519.238 266.014 L 518.709 264.669 L 518.203 263.316 L 517.721 261.954 L 517.262 260.584 L 516.828 259.205 L 516.417 257.82 L 516.031 256.428 L 515.669 255.029 L 515.332 253.624 L 515.019 252.213 L 514.731 250.797 L 514.468 249.376 L 514.229 247.951 L 514.016 246.522 L 513.827 245.09 L 513.664 243.654 L 513.525 242.216 L 513.412 240.775 L 513.323 239.333 L 513.26 237.889 L 513.223 236.445 L 513.21 235 L 513.223 233.555 L 513.26 232.111 L 513.323 230.667 L 513.412 229.225 L 513.525 227.784 L 513.664 226.346 L 513.827 224.91 L 514.016 223.478 L 514.229 222.049 L 514.468 220.624 L 514.731 219.203 L 515.019 217.787 L 515.332 216.376 L 515.669 214.971 L 516.031 213.572 L 516.417 212.18 L 516.828 210.795 L 517.262 209.416 L 517.721 208.046 L 518.203 206.684 L 518.709 205.331 L 519.238 203.986 L 519.791 202.651 L 520.368 201.326 L 520.967 200.011 L 521.589 198.707 L 522.234 197.414 L 522.901 196.132 L 523.59 194.863 L 524.302 193.605 L 525.035 192.36 L 525.79 191.128 L 526.566 189.909 L 527.364 188.704 L 528.182 187.514 L 529.021 186.337 L 529.881 185.176 L 530.761 184.029 L 531.66 182.899 L 532.579 181.784 L 533.518 180.685 L 534.475 179.603 L 535.451 178.537 L 536.446 177.489 L 537.459 176.459 L 538.489 175.446 L 539.537 174.451 L 540.603 173.475 L 541.685 172.518 L 542.784 171.579 L 543.899 170.66 L 545.029 169.761 L 546.176 168.881 L 547.337 168.021 L 548.514 167.182 L 549.704 166.364 L 550.909 165.566 L 552.128 164.79 L 553.36 164.035 L 554.605 163.302 L 555.863 162.59 L 557.132 161.901 L 558.414 161.234 L 559.707 160.589 L 561.011 159.967 L 562.326 159.368 L 563.651 158.791 L 564.986 158.238 L 566.331 157.709 L 567.684 157.203 L 569.046 156.721 L 570.416 156.262 L 571.795 155.828 L 573.18 155.417 L 574.572 155.031 L 575.971 154.669 L 577.376 154.332 L 578.787 154.019 L 580.203 153.731 L 581.624 153.468 L 583.049 153.229 L 584.478 153.016 L 585.91 152.827 L 587.346 152.664 L 588.784 152.525 L 590.225 152.412 L 591.667 152.323 L 593.111 152.26 L 594.555 152.223 L 596 152.21 L 597.445 152.223 L 598.889 152.26 L 600.333 152.323 L 601.775 152.412 L 603.216 152.525 L 604.654 152.664 L 606.09 152.827 L 607.522 153.016 L 608.951 153.229 L 610.376 153.468 L 611.797 153.731 L 613.213 154.019 L 614.624 154.332 L 616.029 154.669 L 617.428 155.031 L 618.82 155.417 L 620.205 155.828 L 621.584 156.262 L 622.954 156.721 L 624.316 157.203 L 625.669 157.709 L 627.014 158.238 L 628.349 158.791 L 629.674 159.368 L 630.989 159.967 L 632.293 160.589 L 633.586 161.234 L 634.868 161.901 L 636.137 162.59 L 637.395 163.302 L 638.64 164.035 L 639.872 164.79 L 641.091 165.566 L 642.296 166.364 L 643.486 167.182 L 644.663 168.021 L 645.824 168.881 L 646.971 169.761 L 648.101 170.66 L 649.216 171.579 L 650.315 172.518 L 651.397 173.475 L 652.463 174.451 L 653.511 175.446 L 654.541 176.459 L 655.554 177.489 L 656.549 178.537 L 657.525 179.603 L 658.482 180.685 L 659.421 181.784 L 660.34 182.899 L 661.239 184.029 L 662.119 185.176 L 662.979 186.337 L 663.818 187.514 L 664.636 188.704 L 665.434 189.909 L 666.21 191.128 L 666.965 192.36 L 667.698 193.605 L 668.41 194.863 L 669.099 196.132 L 669.766 197.414 L 670.411 198.707 L 671.033 200.011 L 671.632 201.326 L 672.209 202.651 L 672.762 203.986 L 673.291 205.331 L 673.797 206.684 L 674.279 208.046 L 674.738 209.416 L 675.172 210.795 L 675.583 212.18 L 675.969 213.572 L 676.331 214.971 L 676.668 216.376 L 676.981 217.787 L 677.269 219.203 L 677.532 220.624 L 677.771 222.049 L 677.984 223.478 L 678.173 224.91 L 678.336 226.346 L 678.475 227.784 L 678.588 229.225 L 678.677 230.667 L 678.74 232.111 L 678.777 233.555 L 678.79 235 L 623.2 235 L 623.196 234.525 L 623.183 234.051 L 623.163 233.576 L 623.134 233.103 L 623.096 232.629 L 623.051 232.157 L 622.997 231.685 L 622.935 231.214 L 622.865 230.745 L 622.787 230.277 L 622.7 229.81 L 622.606 229.345 L 622.503 228.881 L 622.392 228.42 L 622.273 227.96 L 622.146 227.503 L 622.011 227.047 L 621.869 226.595 L 621.718 226.145 L 621.56 225.697 L 621.393 225.252 L 621.219 224.811 L 621.038 224.372 L 620.848 223.937 L 620.652 223.505 L 620.447 223.076 L 620.235 222.651 L 620.016 222.23 L 619.79 221.813 L 619.556 221.4 L 619.315 220.991 L 619.067 220.586 L 618.812 220.186 L 618.55 219.79 L 618.281 219.399 L 618.005 219.012 L 617.723 218.631 L 617.434 218.254 L 617.138 217.882 L 616.836 217.516 L 616.528 217.155 L 616.214 216.8 L 615.893 216.45 L 615.566 216.105 L 615.233 215.767 L 614.895 215.434 L 614.55 215.107 L 614.2 214.786 L 613.845 214.472 L 613.484 214.164 L 613.118 213.862 L 612.746 213.566 L 612.369 213.277 L 611.988 212.995 L 611.601 212.719 L 611.21 212.45 L 610.814 212.188 L 610.414 211.933 L 610.009 211.685 L 609.6 211.444 L 609.187 211.21 L 608.77 210.984 L 608.349 210.765 L 607.924 210.553 L 607.495 210.348 L 607.063 210.152 L 606.628 209.962 L 606.189 209.781 L 605.748 209.607 L 605.303 209.44 L 604.855 209.282 L 604.405 209.131 L 603.953 208.989 L 603.497 208.854 L 603.04 208.727 L 602.58 208.608 L 602.119 208.497 L 601.655 208.394 L 601.19 208.3 L 600.723 208.213 L 600.255 208.135 L 599.786 208.065 L 599.315 208.003 L 598.843 207.949 L 598.371 207.904 L 597.897 207.866 L 597.424 207.837 L 596.949 207.817 L 596.475 207.804 L 596 207.8 L 595.525 207.804 L 595.051 207.817 L 594.576 207.837 L 594.103 207.866 L 593.629 207.904 L 593.157 207.949 L 592.685 208.003 L 592.214 208.065 L 591.745 208.135 L 591.277 208.213 L 590.81 208.3 L 590.345 208.394 L 589.881 208.497 L 589.42 208.608 L 588.96 208.727 L 588.503 208.854 L 588.047 208.989 L 587.595 209.131 L 587.145 209.282 L 586.697 209.44 L 586.252 209.607 L 585.811 209.781 L 585.372 209.962 L 584.937 210.152 L 584.505 210.348 L 584.076 210.553 L 583.651 210.765 L 583.23 210.984 L 582.813 211.21 L 582.4 211.444 L 581.991 211.685 L 581.586 211.933 L 581.186 212.188 L 580.79 212.45 L 580.399 212.719 L 580.012 212.995 L 579.631 213.277 L 579.254 213.566 L 578.882 213.862 L 578.516 214.164 L 578.155 214.472 L 577.8 214.786 L 577.45 215.107 L 577.105 215.434 L 576.767 215.767 L 576.434 216.105 L 576.107 216.45 L 575.786 216.8 L 575.472 217.155 L 575.164 217.516 L 574.862 217.882 L 574.566 218.254 L 574.277 218.631 L 573.995 219.012 L 573.719 219.399 L 573.45 219.79 L 573.188 220.186 L 572.933 220.586 L 572.685 220.991 L 572.444 221.4 L 572.21 221.813 L 571.984 222.23 L 571.765 222.651 L 571.553 223.076 L 571.348 223.505 L 571.152 223.937 L 570.962 224.372 L 570.781 224.811 L 570.607 225.252 L 570.44 225.697 L 570.282 226.145 L 570.131 226.595 L 569.989 227.047 L 569.854 227.503 L 569.727 227.96 L 569.608 228.42 L 569.497 228.881 L 569.394 229.345 L 569.3 229.81 L 569.213 230.277 L 569.135 230.745 L 569.065 231.214 L 569.003 231.685 L 568.949 232.157 L 568.904 232.629 L 568.866 233.103 L 568.837 233.576 L 568.817 234.051 L 568.804 234.525 L 568.8 235 L 568.804 235.475 L 568.817 235.949 L 568.837 236.424 L 568.866 236.897 L 568.904 237.371 L 568.949 237.843 L 569.003 238.315 L 569.065 238.786 L 569.135 239.255 L 569.213 239.723 L 569.3 240.19 L 569.394 240.655 L 569.497 241.119 L 569.608 241.58 L 569.727 242.04 L 569.854 242.497 L 569.989 242.953 L 570.131 243.405 L 570.282 243.855 L 570.44 244.303 L 570.607 244.748 L 570.781 245.189 L 570.962 245.628 L 571.152 246.063 L 571.348 246.495 L 571.553 246.924 L 571.765 247.349 L 571.984 247.77 L 572.21 248.187 L 572.444 248.6 L 572.685 249.009 L 572.933 249.414 L 573.188 249.814 L 573.45 250.21 L 573.719 250.601 L 573.995 250.988 L 574.277 251.369 L 574.566 251.746 L 574.862 252.118 L 575.164 252.484 L 575.472 252.845 L 575.786 253.2 L 576.107 253.55 L 576.434 253.895 L 576.767 254.233 L 577.105 254.566 L 577.45 254.893 L 577.8 255.214 L 578.155 255.528 L 578.516 255.836 L 578.882 256.138 L 579.254 256.434 L 579.631 256.723 L 580.012 257.005 L 580.399 257.281 L 580.79 257.55 L 581.186 257.812 L 581.586 258.067 L 581.991 258.315 L 582.4 258.556 L 582.813 258.79 L 583.23 259.016 L 583.651 259.235 L 584.076 259.447 L 584.505 259.652 L 584.937 259.848 L 585.372 260.038 L 585.811 260.219 L 586.252 260.393 L 586.697 260.56 L 587.145 260.718 L 587.595 260.869 L 588.047 261.011 L 588.503 261.146 L 588.96 261.273 L 589.42 261.392 L 589.881 261.503 L 590.345 261.606 L 590.81 261.7 L 591.277 261.787 L 591.745 261.865 L 592.214 261.935 L 592.685 261.997 L 593.157 262.051 L 593.629 262.096 L 594.103 262.134 L 594.576 262.163 L 595.051 262.183 L 595.525 262.196 L 596 262.2 Z" /><path id="rotated-cover" fill="#315569" stroke="#233E4D" stroke-width="1.1" data-entity="cover" data-object-part="detail" data-view="rotated" data-opening-start-deg="90" data-opening-span-deg="90" d="M 596 314.79 L 594.555 314.777 L 593.111 314.74 L 591.667 314.677 L 590.225 314.588 L 588.784 314.475 L 587.346 314.336 L 585.91 314.173 L 584.478 313.984 L 583.049 313.771 L 581.624 313.532 L 580.203 313.269 L 578.787 312.981 L 577.376 312.668 L 575.971 312.331 L 574.572 311.969 L 573.18 311.583 L 571.795 311.172 L 570.416 310.738 L 569.046 310.279 L 567.684 309.797 L 566.331 309.291 L 564.986 308.762 L 563.651 308.209 L 562.326 307.632 L 561.011 307.033 L 559.707 306.411 L 558.414 305.766 L 557.132 305.099 L 555.863 304.41 L 554.605 303.698 L 553.36 302.965 L 552.128 302.21 L 550.909 301.434 L 549.704 300.636 L 548.514 299.818 L 547.337 298.979 L 546.176 298.119 L 545.029 297.239 L 543.899 296.34 L 542.784 295.421 L 541.685 294.482 L 540.603 293.525 L 539.537 292.549 L 538.489 291.554 L 537.459 290.541 L 536.446 289.511 L 535.451 288.463 L 534.475 287.397 L 533.518 286.315 L 532.579 285.216 L 531.66 284.101 L 530.761 282.971 L 529.881 281.824 L 529.021 280.663 L 528.182 279.486 L 527.364 278.296 L 526.566 277.091 L 525.79 275.872 L 525.035 274.64 L 524.302 273.395 L 523.59 272.137 L 522.901 270.868 L 522.234 269.586 L 521.589 268.293 L 520.967 266.989 L 520.368 265.674 L 519.791 264.349 L 519.238 263.014 L 518.709 261.669 L 518.203 260.316 L 517.721 258.954 L 517.262 257.584 L 516.828 256.205 L 516.417 254.82 L 516.031 253.428 L 515.669 252.029 L 515.332 250.624 L 515.019 249.213 L 514.731 247.797 L 514.468 246.376 L 514.229 244.951 L 514.016 243.522 L 513.827 242.09 L 513.664 240.654 L 513.525 239.216 L 513.412 237.775 L 513.323 236.333 L 513.26 234.889 L 513.223 233.445 L 513.21 232 L 513.223 230.555 L 513.26 229.111 L 513.323 227.667 L 513.412 226.225 L 513.525 224.784 L 513.664 223.346 L 513.827 221.91 L 514.016 220.478 L 514.229 219.049 L 514.468 217.624 L 514.731 216.203 L 515.019 214.787 L 515.332 213.376 L 515.669 211.971 L 516.031 210.572 L 516.417 209.18 L 516.828 207.795 L 517.262 206.416 L 517.721 205.046 L 518.203 203.684 L 518.709 202.331 L 519.238 200.986 L 519.791 199.651 L 520.368 198.326 L 520.967 197.011 L 521.589 195.707 L 522.234 194.414 L 522.901 193.132 L 523.59 191.863 L 524.302 190.605 L 525.035 189.36 L 525.79 188.128 L 526.566 186.909 L 527.364 185.704 L 528.182 184.514 L 529.021 183.337 L 529.881 182.176 L 530.761 181.029 L 531.66 179.899 L 532.579 178.784 L 533.518 177.685 L 534.475 176.603 L 535.451 175.537 L 536.446 174.489 L 537.459 173.459 L 538.489 172.446 L 539.537 171.451 L 540.603 170.475 L 541.685 169.518 L 542.784 168.579 L 543.899 167.66 L 545.029 166.761 L 546.176 165.881 L 547.337 165.021 L 548.514 164.182 L 549.704 163.364 L 550.909 162.566 L 552.128 161.79 L 553.36 161.035 L 554.605 160.302 L 555.863 159.59 L 557.132 158.901 L 558.414 158.234 L 559.707 157.589 L 561.011 156.967 L 562.326 156.368 L 563.651 155.791 L 564.986 155.238 L 566.331 154.709 L 567.684 154.203 L 569.046 153.721 L 570.416 153.262 L 571.795 152.828 L 573.18 152.417 L 574.572 152.031 L 575.971 151.669 L 577.376 151.332 L 578.787 151.019 L 580.203 150.731 L 581.624 150.468 L 583.049 150.229 L 584.478 150.016 L 585.91 149.827 L 587.346 149.664 L 588.784 149.525 L 590.225 149.412 L 591.667 149.323 L 593.111 149.26 L 594.555 149.223 L 596 149.21 L 597.445 149.223 L 598.889 149.26 L 600.333 149.323 L 601.775 149.412 L 603.216 149.525 L 604.654 149.664 L 606.09 149.827 L 607.522 150.016 L 608.951 150.229 L 610.376 150.468 L 611.797 150.731 L 613.213 151.019 L 614.624 151.332 L 616.029 151.669 L 617.428 152.031 L 618.82 152.417 L 620.205 152.828 L 621.584 153.262 L 622.954 153.721 L 624.316 154.203 L 625.669 154.709 L 627.014 155.238 L 628.349 155.791 L 629.674 156.368 L 630.989 156.967 L 632.293 157.589 L 633.586 158.234 L 634.868 158.901 L 636.137 159.59 L 637.395 160.302 L 638.64 161.035 L 639.872 161.79 L 641.091 162.566 L 642.296 163.364 L 643.486 164.182 L 644.663 165.021 L 645.824 165.881 L 646.971 166.761 L 648.101 167.66 L 649.216 168.579 L 650.315 169.518 L 651.397 170.475 L 652.463 171.451 L 653.511 172.446 L 654.541 173.459 L 655.554 174.489 L 656.549 175.537 L 657.525 176.603 L 658.482 177.685 L 659.421 178.784 L 660.34 179.899 L 661.239 181.029 L 662.119 182.176 L 662.979 183.337 L 663.818 184.514 L 664.636 185.704 L 665.434 186.909 L 666.21 188.128 L 666.965 189.36 L 667.698 190.605 L 668.41 191.863 L 669.099 193.132 L 669.766 194.414 L 670.411 195.707 L 671.033 197.011 L 671.632 198.326 L 672.209 199.651 L 672.762 200.986 L 673.291 202.331 L 673.797 203.684 L 674.279 205.046 L 674.738 206.416 L 675.172 207.795 L 675.583 209.18 L 675.969 210.572 L 676.331 211.971 L 676.668 213.376 L 676.981 214.787 L 677.269 216.203 L 677.532 217.624 L 677.771 219.049 L 677.984 220.478 L 678.173 221.91 L 678.336 223.346 L 678.475 224.784 L 678.588 226.225 L 678.677 227.667 L 678.74 229.111 L 678.777 230.555 L 678.79 232 L 623.2 232 L 623.196 231.525 L 623.183 231.051 L 623.163 230.576 L 623.134 230.103 L 623.096 229.629 L 623.051 229.157 L 622.997 228.685 L 622.935 228.214 L 622.865 227.745 L 622.787 227.277 L 622.7 226.81 L 622.606 226.345 L 622.503 225.881 L 622.392 225.42 L 622.273 224.96 L 622.146 224.503 L 622.011 224.047 L 621.869 223.595 L 621.718 223.145 L 621.56 222.697 L 621.393 222.252 L 621.219 221.811 L 621.038 221.372 L 620.848 220.937 L 620.652 220.505 L 620.447 220.076 L 620.235 219.651 L 620.016 219.23 L 619.79 218.813 L 619.556 218.4 L 619.315 217.991 L 619.067 217.586 L 618.812 217.186 L 618.55 216.79 L 618.281 216.399 L 618.005 216.012 L 617.723 215.631 L 617.434 215.254 L 617.138 214.882 L 616.836 214.516 L 616.528 214.155 L 616.214 213.8 L 615.893 213.45 L 615.566 213.105 L 615.233 212.767 L 614.895 212.434 L 614.55 212.107 L 614.2 211.786 L 613.845 211.472 L 613.484 211.164 L 613.118 210.862 L 612.746 210.566 L 612.369 210.277 L 611.988 209.995 L 611.601 209.719 L 611.21 209.45 L 610.814 209.188 L 610.414 208.933 L 610.009 208.685 L 609.6 208.444 L 609.187 208.21 L 608.77 207.984 L 608.349 207.765 L 607.924 207.553 L 607.495 207.348 L 607.063 207.152 L 606.628 206.962 L 606.189 206.781 L 605.748 206.607 L 605.303 206.44 L 604.855 206.282 L 604.405 206.131 L 603.953 205.989 L 603.497 205.854 L 603.04 205.727 L 602.58 205.608 L 602.119 205.497 L 601.655 205.394 L 601.19 205.3 L 600.723 205.213 L 600.255 205.135 L 599.786 205.065 L 599.315 205.003 L 598.843 204.949 L 598.371 204.904 L 597.897 204.866 L 597.424 204.837 L 596.949 204.817 L 596.475 204.804 L 596 204.8 L 595.525 204.804 L 595.051 204.817 L 594.576 204.837 L 594.103 204.866 L 593.629 204.904 L 593.157 204.949 L 592.685 205.003 L 592.214 205.065 L 591.745 205.135 L 591.277 205.213 L 590.81 205.3 L 590.345 205.394 L 589.881 205.497 L 589.42 205.608 L 588.96 205.727 L 588.503 205.854 L 588.047 205.989 L 587.595 206.131 L 587.145 206.282 L 586.697 206.44 L 586.252 206.607 L 585.811 206.781 L 585.372 206.962 L 584.937 207.152 L 584.505 207.348 L 584.076 207.553 L 583.651 207.765 L 583.23 207.984 L 582.813 208.21 L 582.4 208.444 L 581.991 208.685 L 581.586 208.933 L 581.186 209.188 L 580.79 209.45 L 580.399 209.719 L 580.012 209.995 L 579.631 210.277 L 579.254 210.566 L 578.882 210.862 L 578.516 211.164 L 578.155 211.472 L 577.8 211.786 L 577.45 212.107 L 577.105 212.434 L 576.767 212.767 L 576.434 213.105 L 576.107 213.45 L 575.786 213.8 L 575.472 214.155 L 575.164 214.516 L 574.862 214.882 L 574.566 215.254 L 574.277 215.631 L 573.995 216.012 L 573.719 216.399 L 573.45 216.79 L 573.188 217.186 L 572.933 217.586 L 572.685 217.991 L 572.444 218.4 L 572.21 218.813 L 571.984 219.23 L 571.765 219.651 L 571.553 220.076 L 571.348 220.505 L 571.152 220.937 L 570.962 221.372 L 570.781 221.811 L 570.607 222.252 L 570.44 222.697 L 570.282 223.145 L 570.131 223.595 L 569.989 224.047 L 569.854 224.503 L 569.727 224.96 L 569.608 225.42 L 569.497 225.881 L 569.394 226.345 L 569.3 226.81 L 569.213 227.277 L 569.135 227.745 L 569.065 228.214 L 569.003 228.685 L 568.949 229.157 L 568.904 229.629 L 568.866 230.103 L 568.837 230.576 L 568.817 231.051 L 568.804 231.525 L 568.8 232 L 568.804 232.475 L 568.817 232.949 L 568.837 233.424 L 568.866 233.897 L 568.904 234.371 L 568.949 234.843 L 569.003 235.315 L 569.065 235.786 L 569.135 236.255 L 569.213 236.723 L 569.3 237.19 L 569.394 237.655 L 569.497 238.119 L 569.608 238.58 L 569.727 239.04 L 569.854 239.497 L 569.989 239.953 L 570.131 240.405 L 570.282 240.855 L 570.44 241.303 L 570.607 241.748 L 570.781 242.189 L 570.962 242.628 L 571.152 243.063 L 571.348 243.495 L 571.553 243.924 L 571.765 244.349 L 571.984 244.77 L 572.21 245.187 L 572.444 245.6 L 572.685 246.009 L 572.933 246.414 L 573.188 246.814 L 573.45 247.21 L 573.719 247.601 L 573.995 247.988 L 574.277 248.369 L 574.566 248.746 L 574.862 249.118 L 575.164 249.484 L 575.472 249.845 L 575.786 250.2 L 576.107 250.55 L 576.434 250.895 L 576.767 251.233 L 577.105 251.566 L 577.45 251.893 L 577.8 252.214 L 578.155 252.528 L 578.516 252.836 L 578.882 253.138 L 579.254 253.434 L 579.631 253.723 L 580.012 254.005 L 580.399 254.281 L 580.79 254.55 L 581.186 254.812 L 581.586 255.067 L 581.991 255.315 L 582.4 255.556 L 582.813 255.79 L 583.23 256.016 L 583.651 256.235 L 584.076 256.447 L 584.505 256.652 L 584.937 256.848 L 585.372 257.038 L 585.811 257.219 L 586.252 257.393 L 586.697 257.56 L 587.145 257.718 L 587.595 257.869 L 588.047 258.011 L 588.503 258.146 L 588.96 258.273 L 589.42 258.392 L 589.881 258.503 L 590.345 258.606 L 590.81 258.7 L 591.277 258.787 L 591.745 258.865 L 592.214 258.935 L 592.685 258.997 L 593.157 259.051 L 593.629 259.096 L 594.103 259.134 L 594.576 259.163 L 595.051 259.183 L 595.525 259.196 L 596 259.2 Z" /><circle id="rotated-shaft-side" cx="596" cy="234" r="19.974999999999998" fill="#9CAAB1" stroke="none" stroke-width="1" data-entity="shaft" data-object-part="decoration" data-view="rotated" /><circle id="rotated-shaft" cx="596" cy="232" r="19.974999999999998" fill="#CDD6DB" stroke="#9CAAB1" stroke-width="1.1" data-entity="shaft" data-object-part="detail" data-view="rotated" /><text id="rotated-fixed" x="596" y="236.2" font-size="13.5" font-weight="normal" text-anchor="middle" fill="#22333F" font-family="Arial" data-entity="shaft" data-object-part="decoration" data-view="rotated">fixed</text><path id="rotation-arc" fill="none" stroke="#22333F" stroke-width="1.8" data-relation="cover-rotation" d="M 557.416 136.5 L 559.088 135.841 L 560.772 135.212 L 562.466 134.612 L 564.171 134.041 L 565.886 133.501 L 567.609 132.99 L 569.342 132.51 L 571.082 132.06 L 572.83 131.64 L 574.585 131.251 L 576.347 130.892 L 578.114 130.565 L 579.887 130.268 L 581.665 130.002 L 583.447 129.768 L 585.234 129.564 L 587.023 129.392 L 588.815 129.251 L 590.609 129.141 L 592.405 129.063 L 594.202 129.016 L 596 129 L 597.798 129.016 L 599.595 129.063 L 601.391 129.141 L 603.185 129.251 L 604.977 129.392 L 606.766 129.564 L 608.553 129.768 L 610.335 130.002 L 612.113 130.268 L 613.886 130.565 L 615.653 130.892 L 617.415 131.251 L 619.17 131.64 L 620.918 132.06 L 622.658 132.51 L 624.391 132.99 L 626.114 133.501 L 627.829 134.041 L 629.534 134.612 L 631.228 135.212 L 632.912 135.841 L 634.584 136.5 L 636.245 137.188 L 637.894 137.905 L 639.53 138.65 L 641.152 139.424 L 642.761 140.226 L 644.356 141.056 L 645.935 141.914 L 647.5 142.799 L 649.049 143.712 L 650.582 144.651 L 652.098 145.617 L 653.597 146.609 L 655.078 147.627 L 656.542 148.671 L 657.987 149.741 L 659.413 150.835 L 660.82 151.954 L 662.207 153.097 L 663.574 154.265 L 664.92 155.456 L 666.246 156.671 L 667.55 157.908 L 668.832 159.168 L 670.092 160.45 L 671.329 161.754 L 672.544 163.08 L 673.735 164.426 L 674.903 165.793 L 676.046 167.18 L 677.165 168.587 L 678.259 170.013 L 679.329 171.458 L 680.373 172.922 L 681.391 174.403 L 682.383 175.902 L 683.349 177.418 L 684.288 178.951 L 685.201 180.5 L 686.086 182.065 L 686.944 183.644 L 687.774 185.239 L 688.576 186.848 L 689.35 188.47 L 690.095 190.106 L 690.812 191.755 L 691.5 193.416" /><path id="rotation-head" fill="#22333F" stroke="none" stroke-width="1" data-relation="cover-rotation" d="M 691.5 193.416 L 684.42 186.569 L 691.837 183.572 Z" /><text id="baseline-visible" x="123" y="349" font-size="16" font-weight="bold" text-anchor="middle" fill="#22333F" font-family="Arial">All 8 visible</text><text id="initial-visible" x="360" y="349" font-size="16" font-weight="bold" text-anchor="middle" fill="#22333F" font-family="Arial">1, 2 visible</text><text id="rotated-visible" x="596" y="349" font-size="16" font-weight="bold" text-anchor="middle" fill="#22333F" font-family="Arial">3, 4 visible</text><line id="state-transition" x1="459" y1="232" x2="488" y2="232" stroke="#52626C" stroke-width="1.5" fill="none" data-relation="initial-to-rotated" /><path id="state-transition-head" fill="#52626C" stroke="none" stroke-width="1" data-relation="initial-to-rotated" d="M 488 232 L 481 228.5 L 481 235.5 Z" /><line id="legend-rule" x1="24" y1="378" x2="704" y2="378" stroke="#CBD4D9" stroke-width="1" fill="none" /><circle id="legend-fixed" cx="39" cy="408" r="7" fill="#E6EBED" stroke="#9CAAB1" stroke-width="1" data-object-part="legend" /><text id="legend-fixed-label" x="54" y="413" font-size="14.5" font-weight="normal" text-anchor="start" fill="#22333F" font-family="Arial">Fixed disk + shaft</text><circle id="legend-cover" cx="308" cy="408" r="7" fill="#315569" stroke="none" stroke-width="1" data-object-part="legend" /><text id="legend-cover-label" x="323" y="413" font-size="14.5" font-weight="normal" text-anchor="start" fill="#22333F" font-family="Arial">Rotating cover</text><circle id="legend-contact" cx="555" cy="408" r="7" fill="#EDBD67" stroke="#866333" stroke-width="1" data-object-part="legend" /><text id="legend-contact-label" x="570" y="413" font-size="14.5" font-weight="normal" text-anchor="start" fill="#22333F" font-family="Arial">Contact</text></svg>